<?xml version="1.0" encoding="utf-8" standalone="no"?>
<!DOCTYPE svg PUBLIC "-//W3C//DTD SVG 1.1//EN"
  "http://www.w3.org/Graphics/SVG/1.1/DTD/svg11.dtd">
<svg xmlns:xlink="http://www.w3.org/1999/xlink" width="656.9325pt" height="431.7255pt" viewBox="0 0 656.9325 431.7255" xmlns="http://www.w3.org/2000/svg" version="1.1">
 <metadata>
  <rdf:RDF xmlns:dc="http://purl.org/dc/elements/1.1/" xmlns:cc="http://creativecommons.org/ns#" xmlns:rdf="http://www.w3.org/1999/02/22-rdf-syntax-ns#">
   <cc:Work>
    <dc:type rdf:resource="http://purl.org/dc/dcmitype/StillImage"/>
    <dc:date>2026-06-14T11:32:41.291360</dc:date>
    <dc:format>image/svg+xml</dc:format>
    <dc:creator>
     <cc:Agent>
      <dc:title>Matplotlib v3.11.0, https://matplotlib.org/</dc:title>
     </cc:Agent>
    </dc:creator>
   </cc:Work>
  </rdf:RDF>
 </metadata>
 <defs>
  <style type="text/css">*{stroke-linejoin: round; stroke-linecap: butt}</style>
 </defs>
 <g id="figure_1">
  <g id="patch_1">
   <path d="M 0 431.7255 
L 656.9325 431.7255 
L 656.9325 -0 
L 0 -0 
z
" style="fill: #ffffff"/>
  </g>
  <g id="axes_1">
   <g id="text_1">
    <g id="patch_2">
     <path d="M 45.702 137.328356 
L 142.922156 137.328356 
Q 148.172156 137.328356 148.172156 132.078356 
L 148.172156 94.270564 
Q 148.172156 89.020564 142.922156 89.020564 
L 45.702 89.020564 
Q 40.452 89.020564 40.452 94.270564 
L 40.452 132.078356 
Q 40.452 137.328356 45.702 137.328356 
z
" style="fill: #4c78a8; opacity: 0.92"/>
    </g>
    <!-- ds003522 -->
    <g style="fill: #ffffff" transform="translate(45.702 103.299948) scale(0.105 -0.105)">
     <defs>
      <path id="DejaVuSans-47" d="M 2906 2969 
L 2906 4863 
L 3481 4863 
L 3481 0 
L 2906 0 
L 2906 525 
Q 2725 213 2448 61 
Q 2172 -91 1784 -91 
Q 1150 -91 751 415 
Q 353 922 353 1747 
Q 353 2572 751 3078 
Q 1150 3584 1784 3584 
Q 2172 3584 2448 3432 
Q 2725 3281 2906 2969 
z
M 947 1747 
Q 947 1113 1208 752 
Q 1469 391 1925 391 
Q 2381 391 2643 752 
Q 2906 1113 2906 1747 
Q 2906 2381 2643 2742 
Q 2381 3103 1925 3103 
Q 1469 3103 1208 2742 
Q 947 2381 947 1747 
z
" transform="scale(0.015625)"/>
      <path id="DejaVuSans-56" d="M 2834 3397 
L 2834 2853 
Q 2591 2978 2328 3040 
Q 2066 3103 1784 3103 
Q 1356 3103 1142 2972 
Q 928 2841 928 2578 
Q 928 2378 1081 2264 
Q 1234 2150 1697 2047 
L 1894 2003 
Q 2506 1872 2764 1633 
Q 3022 1394 3022 966 
Q 3022 478 2636 193 
Q 2250 -91 1575 -91 
Q 1294 -91 989 -36 
Q 684 19 347 128 
L 347 722 
Q 666 556 975 473 
Q 1284 391 1588 391 
Q 1994 391 2212 530 
Q 2431 669 2431 922 
Q 2431 1156 2273 1281 
Q 2116 1406 1581 1522 
L 1381 1569 
Q 847 1681 609 1914 
Q 372 2147 372 2553 
Q 372 3047 722 3315 
Q 1072 3584 1716 3584 
Q 2034 3584 2315 3537 
Q 2597 3491 2834 3397 
z
" transform="scale(0.015625)"/>
      <path id="DejaVuSans-13" d="M 2034 4250 
Q 1547 4250 1301 3770 
Q 1056 3291 1056 2328 
Q 1056 1369 1301 889 
Q 1547 409 2034 409 
Q 2525 409 2770 889 
Q 3016 1369 3016 2328 
Q 3016 3291 2770 3770 
Q 2525 4250 2034 4250 
z
M 2034 4750 
Q 2819 4750 3233 4129 
Q 3647 3509 3647 2328 
Q 3647 1150 3233 529 
Q 2819 -91 2034 -91 
Q 1250 -91 836 529 
Q 422 1150 422 2328 
Q 422 3509 836 4129 
Q 1250 4750 2034 4750 
z
" transform="scale(0.015625)"/>
      <path id="DejaVuSans-16" d="M 2597 2516 
Q 3050 2419 3304 2112 
Q 3559 1806 3559 1356 
Q 3559 666 3084 287 
Q 2609 -91 1734 -91 
Q 1441 -91 1130 -33 
Q 819 25 488 141 
L 488 750 
Q 750 597 1062 519 
Q 1375 441 1716 441 
Q 2309 441 2620 675 
Q 2931 909 2931 1356 
Q 2931 1769 2642 2001 
Q 2353 2234 1838 2234 
L 1294 2234 
L 1294 2753 
L 1863 2753 
Q 2328 2753 2575 2939 
Q 2822 3125 2822 3475 
Q 2822 3834 2567 4026 
Q 2313 4219 1838 4219 
Q 1578 4219 1281 4162 
Q 984 4106 628 3988 
L 628 4550 
Q 988 4650 1302 4700 
Q 1616 4750 1894 4750 
Q 2613 4750 3031 4423 
Q 3450 4097 3450 3541 
Q 3450 3153 3228 2886 
Q 3006 2619 2597 2516 
z
" transform="scale(0.015625)"/>
      <path id="DejaVuSans-18" d="M 691 4666 
L 3169 4666 
L 3169 4134 
L 1269 4134 
L 1269 2991 
Q 1406 3038 1543 3061 
Q 1681 3084 1819 3084 
Q 2600 3084 3056 2656 
Q 3513 2228 3513 1497 
Q 3513 744 3044 326 
Q 2575 -91 1722 -91 
Q 1428 -91 1123 -41 
Q 819 9 494 109 
L 494 744 
Q 775 591 1075 516 
Q 1375 441 1709 441 
Q 2250 441 2565 725 
Q 2881 1009 2881 1497 
Q 2881 1984 2565 2268 
Q 2250 2553 1709 2553 
Q 1456 2553 1204 2497 
Q 953 2441 691 2322 
L 691 4666 
z
" transform="scale(0.015625)"/>
      <path id="DejaVuSans-15" d="M 1228 531 
L 3431 531 
L 3431 0 
L 469 0 
L 469 531 
Q 828 903 1448 1529 
Q 2069 2156 2228 2338 
Q 2531 2678 2651 2914 
Q 2772 3150 2772 3378 
Q 2772 3750 2511 3984 
Q 2250 4219 1831 4219 
Q 1534 4219 1204 4116 
Q 875 4013 500 3803 
L 500 4441 
Q 881 4594 1212 4672 
Q 1544 4750 1819 4750 
Q 2544 4750 2975 4387 
Q 3406 4025 3406 3419 
Q 3406 3131 3298 2873 
Q 3191 2616 2906 2266 
Q 2828 2175 2409 1742 
Q 1991 1309 1228 531 
z
" transform="scale(0.015625)"/>
     </defs>
     <use xlink:href="#DejaVuSans-47"/>
     <use xlink:href="#DejaVuSans-56" transform="translate(63.484375 0)"/>
     <use xlink:href="#DejaVuSans-13" transform="translate(115.578125 0)"/>
     <use xlink:href="#DejaVuSans-13" transform="translate(179.203125 0)"/>
     <use xlink:href="#DejaVuSans-16" transform="translate(242.828125 0)"/>
     <use xlink:href="#DejaVuSans-18" transform="translate(306.453125 0)"/>
     <use xlink:href="#DejaVuSans-15" transform="translate(370.078125 0)"/>
     <use xlink:href="#DejaVuSans-15" transform="translate(433.703125 0)"/>
    </g>
    <!-- 200 SET / 200 FDT -->
    <g style="fill: #ffffff" transform="translate(45.702 115.901999) scale(0.105 -0.105)">
     <defs>
      <path id="DejaVuSans-3" transform="scale(0.015625)"/>
      <path id="DejaVuSans-36" d="M 3425 4513 
L 3425 3897 
Q 3066 4069 2747 4153 
Q 2428 4238 2131 4238 
Q 1616 4238 1336 4038 
Q 1056 3838 1056 3469 
Q 1056 3159 1242 3001 
Q 1428 2844 1947 2747 
L 2328 2669 
Q 3034 2534 3370 2195 
Q 3706 1856 3706 1288 
Q 3706 609 3251 259 
Q 2797 -91 1919 -91 
Q 1588 -91 1214 -16 
Q 841 59 441 206 
L 441 856 
Q 825 641 1194 531 
Q 1563 422 1919 422 
Q 2459 422 2753 634 
Q 3047 847 3047 1241 
Q 3047 1584 2836 1778 
Q 2625 1972 2144 2069 
L 1759 2144 
Q 1053 2284 737 2584 
Q 422 2884 422 3419 
Q 422 4038 858 4394 
Q 1294 4750 2059 4750 
Q 2388 4750 2728 4690 
Q 3069 4631 3425 4513 
z
" transform="scale(0.015625)"/>
      <path id="DejaVuSans-28" d="M 628 4666 
L 3578 4666 
L 3578 4134 
L 1259 4134 
L 1259 2753 
L 3481 2753 
L 3481 2222 
L 1259 2222 
L 1259 531 
L 3634 531 
L 3634 0 
L 628 0 
L 628 4666 
z
" transform="scale(0.015625)"/>
      <path id="DejaVuSans-37" d="M -19 4666 
L 3928 4666 
L 3928 4134 
L 2272 4134 
L 2272 0 
L 1638 0 
L 1638 4134 
L -19 4134 
L -19 4666 
z
" transform="scale(0.015625)"/>
      <path id="DejaVuSans-12" d="M 1625 4666 
L 2156 4666 
L 531 -594 
L 0 -594 
L 1625 4666 
z
" transform="scale(0.015625)"/>
      <path id="DejaVuSans-29" d="M 628 4666 
L 3309 4666 
L 3309 4134 
L 1259 4134 
L 1259 2759 
L 3109 2759 
L 3109 2228 
L 1259 2228 
L 1259 0 
L 628 0 
L 628 4666 
z
" transform="scale(0.015625)"/>
      <path id="DejaVuSans-27" d="M 1259 4147 
L 1259 519 
L 2022 519 
Q 2988 519 3436 956 
Q 3884 1394 3884 2338 
Q 3884 3275 3436 3711 
Q 2988 4147 2022 4147 
L 1259 4147 
z
M 628 4666 
L 1925 4666 
Q 3281 4666 3915 4102 
Q 4550 3538 4550 2338 
Q 4550 1131 3912 565 
Q 3275 0 1925 0 
L 628 0 
L 628 4666 
z
" transform="scale(0.015625)"/>
     </defs>
     <use xlink:href="#DejaVuSans-15"/>
     <use xlink:href="#DejaVuSans-13" transform="translate(63.625 0)"/>
     <use xlink:href="#DejaVuSans-13" transform="translate(127.25 0)"/>
     <use xlink:href="#DejaVuSans-3" transform="translate(190.875 0)"/>
     <use xlink:href="#DejaVuSans-36" transform="translate(222.65625 0)"/>
     <use xlink:href="#DejaVuSans-28" transform="translate(286.140625 0)"/>
     <use xlink:href="#DejaVuSans-37" transform="translate(349.328125 0)"/>
     <use xlink:href="#DejaVuSans-3" transform="translate(410.40625 0)"/>
     <use xlink:href="#DejaVuSans-12" transform="translate(442.1875 0)"/>
     <use xlink:href="#DejaVuSans-3" transform="translate(475.875 0)"/>
     <use xlink:href="#DejaVuSans-15" transform="translate(507.65625 0)"/>
     <use xlink:href="#DejaVuSans-13" transform="translate(571.28125 0)"/>
     <use xlink:href="#DejaVuSans-13" transform="translate(634.90625 0)"/>
     <use xlink:href="#DejaVuSans-3" transform="translate(698.53125 0)"/>
     <use xlink:href="#DejaVuSans-29" transform="translate(730.3125 0)"/>
     <use xlink:href="#DejaVuSans-27" transform="translate(787.828125 0)"/>
     <use xlink:href="#DejaVuSans-37" transform="translate(864.828125 0)"/>
    </g>
    <!-- 25.35 GiB -->
    <g style="fill: #ffffff" transform="translate(45.702 128.50487) scale(0.105 -0.105)">
     <defs>
      <path id="DejaVuSans-11" d="M 684 794 
L 1344 794 
L 1344 0 
L 684 0 
L 684 794 
z
" transform="scale(0.015625)"/>
      <path id="DejaVuSans-2a" d="M 3809 666 
L 3809 1919 
L 2778 1919 
L 2778 2438 
L 4434 2438 
L 4434 434 
Q 4069 175 3628 42 
Q 3188 -91 2688 -91 
Q 1594 -91 976 548 
Q 359 1188 359 2328 
Q 359 3472 976 4111 
Q 1594 4750 2688 4750 
Q 3144 4750 3555 4637 
Q 3966 4525 4313 4306 
L 4313 3634 
Q 3963 3931 3569 4081 
Q 3175 4231 2741 4231 
Q 1884 4231 1454 3753 
Q 1025 3275 1025 2328 
Q 1025 1384 1454 906 
Q 1884 428 2741 428 
Q 3075 428 3337 486 
Q 3600 544 3809 666 
z
" transform="scale(0.015625)"/>
      <path id="DejaVuSans-4c" d="M 603 3500 
L 1178 3500 
L 1178 0 
L 603 0 
L 603 3500 
z
M 603 4863 
L 1178 4863 
L 1178 4134 
L 603 4134 
L 603 4863 
z
" transform="scale(0.015625)"/>
      <path id="DejaVuSans-25" d="M 1259 2228 
L 1259 519 
L 2272 519 
Q 2781 519 3026 730 
Q 3272 941 3272 1375 
Q 3272 1813 3026 2020 
Q 2781 2228 2272 2228 
L 1259 2228 
z
M 1259 4147 
L 1259 2741 
L 2194 2741 
Q 2656 2741 2882 2914 
Q 3109 3088 3109 3444 
Q 3109 3797 2882 3972 
Q 2656 4147 2194 4147 
L 1259 4147 
z
M 628 4666 
L 2241 4666 
Q 2963 4666 3353 4366 
Q 3744 4066 3744 3513 
Q 3744 3084 3544 2831 
Q 3344 2578 2956 2516 
Q 3422 2416 3680 2098 
Q 3938 1781 3938 1306 
Q 3938 681 3513 340 
Q 3088 0 2303 0 
L 628 0 
L 628 4666 
z
" transform="scale(0.015625)"/>
     </defs>
     <use xlink:href="#DejaVuSans-15"/>
     <use xlink:href="#DejaVuSans-18" transform="translate(63.625 0)"/>
     <use xlink:href="#DejaVuSans-11" transform="translate(127.25 0)"/>
     <use xlink:href="#DejaVuSans-16" transform="translate(159.03125 0)"/>
     <use xlink:href="#DejaVuSans-18" transform="translate(222.65625 0)"/>
     <use xlink:href="#DejaVuSans-3" transform="translate(286.28125 0)"/>
     <use xlink:href="#DejaVuSans-2a" transform="translate(318.0625 0)"/>
     <use xlink:href="#DejaVuSans-4c" transform="translate(395.546875 0)"/>
     <use xlink:href="#DejaVuSans-25" transform="translate(423.328125 0)"/>
    </g>
   </g>
   <g id="patch_3">
    <path d="M 208.129179 113.17446 
Q 231.7949 113.17446 253.895373 113.17446 
" style="fill: none; stroke: #4a5568; stroke-width: 1.4; stroke-linecap: round"/>
    <path d="M 249.895373 111.17446 
L 253.895373 113.17446 
L 249.895373 115.17446 
" style="fill: none; stroke: #4a5568; stroke-width: 1.4; stroke-linecap: round"/>
   </g>
   <g id="text_2">
    <g id="patch_4">
     <path d="M 276.714 122.959862 
L 409.883344 122.959862 
Q 414.518344 122.959862 414.518344 118.324862 
L 414.518344 108.024058 
Q 414.518344 103.389058 409.883344 103.389058 
L 276.714 103.389058 
Q 272.079 103.389058 272.079 108.024058 
L 272.079 118.324862 
Q 272.079 122.959862 276.714 122.959862 
z
" style="fill: #edf2f7; stroke: #a0aec0; stroke-linejoin: miter"/>
    </g>
    <!-- D1/D3 TBI primary source -->
    <g style="fill: #1a202c" transform="translate(276.714 115.850448) scale(0.103 -0.103)">
     <defs>
      <path id="DejaVuSans-14" d="M 794 531 
L 1825 531 
L 1825 4091 
L 703 3866 
L 703 4441 
L 1819 4666 
L 2450 4666 
L 2450 531 
L 3481 531 
L 3481 0 
L 794 0 
L 794 531 
z
" transform="scale(0.015625)"/>
      <path id="DejaVuSans-2c" d="M 628 4666 
L 1259 4666 
L 1259 0 
L 628 0 
L 628 4666 
z
" transform="scale(0.015625)"/>
      <path id="DejaVuSans-53" d="M 1159 525 
L 1159 -1331 
L 581 -1331 
L 581 3500 
L 1159 3500 
L 1159 2969 
Q 1341 3281 1617 3432 
Q 1894 3584 2278 3584 
Q 2916 3584 3314 3078 
Q 3713 2572 3713 1747 
Q 3713 922 3314 415 
Q 2916 -91 2278 -91 
Q 1894 -91 1617 61 
Q 1341 213 1159 525 
z
M 3116 1747 
Q 3116 2381 2855 2742 
Q 2594 3103 2138 3103 
Q 1681 3103 1420 2742 
Q 1159 2381 1159 1747 
Q 1159 1113 1420 752 
Q 1681 391 2138 391 
Q 2594 391 2855 752 
Q 3116 1113 3116 1747 
z
" transform="scale(0.015625)"/>
      <path id="DejaVuSans-55" d="M 2631 2963 
Q 2534 3019 2420 3045 
Q 2306 3072 2169 3072 
Q 1681 3072 1420 2755 
Q 1159 2438 1159 1844 
L 1159 0 
L 581 0 
L 581 3500 
L 1159 3500 
L 1159 2956 
Q 1341 3275 1631 3429 
Q 1922 3584 2338 3584 
Q 2397 3584 2469 3576 
Q 2541 3569 2628 3553 
L 2631 2963 
z
" transform="scale(0.015625)"/>
      <path id="DejaVuSans-50" d="M 3328 2828 
Q 3544 3216 3844 3400 
Q 4144 3584 4550 3584 
Q 5097 3584 5394 3201 
Q 5691 2819 5691 2113 
L 5691 0 
L 5113 0 
L 5113 2094 
Q 5113 2597 4934 2840 
Q 4756 3084 4391 3084 
Q 3944 3084 3684 2787 
Q 3425 2491 3425 1978 
L 3425 0 
L 2847 0 
L 2847 2094 
Q 2847 2600 2669 2842 
Q 2491 3084 2119 3084 
Q 1678 3084 1418 2786 
Q 1159 2488 1159 1978 
L 1159 0 
L 581 0 
L 581 3500 
L 1159 3500 
L 1159 2956 
Q 1356 3278 1631 3431 
Q 1906 3584 2284 3584 
Q 2666 3584 2933 3390 
Q 3200 3197 3328 2828 
z
" transform="scale(0.015625)"/>
      <path id="DejaVuSans-44" d="M 2194 1759 
Q 1497 1759 1228 1600 
Q 959 1441 959 1056 
Q 959 750 1161 570 
Q 1363 391 1709 391 
Q 2188 391 2477 730 
Q 2766 1069 2766 1631 
L 2766 1759 
L 2194 1759 
z
M 3341 1997 
L 3341 0 
L 2766 0 
L 2766 531 
Q 2569 213 2275 61 
Q 1981 -91 1556 -91 
Q 1019 -91 701 211 
Q 384 513 384 1019 
Q 384 1609 779 1909 
Q 1175 2209 1959 2209 
L 2766 2209 
L 2766 2266 
Q 2766 2663 2505 2880 
Q 2244 3097 1772 3097 
Q 1472 3097 1187 3025 
Q 903 2953 641 2809 
L 641 3341 
Q 956 3463 1253 3523 
Q 1550 3584 1831 3584 
Q 2591 3584 2966 3190 
Q 3341 2797 3341 1997 
z
" transform="scale(0.015625)"/>
      <path id="DejaVuSans-5c" d="M 2059 -325 
Q 1816 -950 1584 -1140 
Q 1353 -1331 966 -1331 
L 506 -1331 
L 506 -850 
L 844 -850 
Q 1081 -850 1212 -737 
Q 1344 -625 1503 -206 
L 1606 56 
L 191 3500 
L 800 3500 
L 1894 763 
L 2988 3500 
L 3597 3500 
L 2059 -325 
z
" transform="scale(0.015625)"/>
      <path id="DejaVuSans-52" d="M 1959 3097 
Q 1497 3097 1228 2736 
Q 959 2375 959 1747 
Q 959 1119 1226 758 
Q 1494 397 1959 397 
Q 2419 397 2687 759 
Q 2956 1122 2956 1747 
Q 2956 2369 2687 2733 
Q 2419 3097 1959 3097 
z
M 1959 3584 
Q 2709 3584 3137 3096 
Q 3566 2609 3566 1747 
Q 3566 888 3137 398 
Q 2709 -91 1959 -91 
Q 1206 -91 779 398 
Q 353 888 353 1747 
Q 353 2609 779 3096 
Q 1206 3584 1959 3584 
z
" transform="scale(0.015625)"/>
      <path id="DejaVuSans-58" d="M 544 1381 
L 544 3500 
L 1119 3500 
L 1119 1403 
Q 1119 906 1312 657 
Q 1506 409 1894 409 
Q 2359 409 2629 706 
Q 2900 1003 2900 1516 
L 2900 3500 
L 3475 3500 
L 3475 0 
L 2900 0 
L 2900 538 
Q 2691 219 2414 64 
Q 2138 -91 1772 -91 
Q 1169 -91 856 284 
Q 544 659 544 1381 
z
M 1991 3584 
L 1991 3584 
z
" transform="scale(0.015625)"/>
      <path id="DejaVuSans-46" d="M 3122 3366 
L 3122 2828 
Q 2878 2963 2633 3030 
Q 2388 3097 2138 3097 
Q 1578 3097 1268 2742 
Q 959 2388 959 1747 
Q 959 1106 1268 751 
Q 1578 397 2138 397 
Q 2388 397 2633 464 
Q 2878 531 3122 666 
L 3122 134 
Q 2881 22 2623 -34 
Q 2366 -91 2075 -91 
Q 1284 -91 818 406 
Q 353 903 353 1747 
Q 353 2603 823 3093 
Q 1294 3584 2113 3584 
Q 2378 3584 2631 3529 
Q 2884 3475 3122 3366 
z
" transform="scale(0.015625)"/>
      <path id="DejaVuSans-48" d="M 3597 1894 
L 3597 1613 
L 953 1613 
Q 991 1019 1311 708 
Q 1631 397 2203 397 
Q 2534 397 2845 478 
Q 3156 559 3463 722 
L 3463 178 
Q 3153 47 2828 -22 
Q 2503 -91 2169 -91 
Q 1331 -91 842 396 
Q 353 884 353 1716 
Q 353 2575 817 3079 
Q 1281 3584 2069 3584 
Q 2775 3584 3186 3129 
Q 3597 2675 3597 1894 
z
M 3022 2063 
Q 3016 2534 2758 2815 
Q 2500 3097 2075 3097 
Q 1594 3097 1305 2825 
Q 1016 2553 972 2059 
L 3022 2063 
z
" transform="scale(0.015625)"/>
     </defs>
     <use xlink:href="#DejaVuSans-27"/>
     <use xlink:href="#DejaVuSans-14" transform="translate(77 0)"/>
     <use xlink:href="#DejaVuSans-12" transform="translate(140.625 0)"/>
     <use xlink:href="#DejaVuSans-27" transform="translate(174.3125 0)"/>
     <use xlink:href="#DejaVuSans-16" transform="translate(251.3125 0)"/>
     <use xlink:href="#DejaVuSans-3" transform="translate(314.9375 0)"/>
     <use xlink:href="#DejaVuSans-37" transform="translate(346.71875 0)"/>
     <use xlink:href="#DejaVuSans-25" transform="translate(407.796875 0)"/>
     <use xlink:href="#DejaVuSans-2c" transform="translate(476.40625 0)"/>
     <use xlink:href="#DejaVuSans-3" transform="translate(505.90625 0)"/>
     <use xlink:href="#DejaVuSans-53" transform="translate(537.6875 0)"/>
     <use xlink:href="#DejaVuSans-55" transform="translate(601.171875 0)"/>
     <use xlink:href="#DejaVuSans-4c" transform="translate(642.28125 0)"/>
     <use xlink:href="#DejaVuSans-50" transform="translate(670.0625 0)"/>
     <use xlink:href="#DejaVuSans-44" transform="translate(767.46875 0)"/>
     <use xlink:href="#DejaVuSans-55" transform="translate(828.75 0)"/>
     <use xlink:href="#DejaVuSans-5c" transform="translate(869.859375 0)"/>
     <use xlink:href="#DejaVuSans-3" transform="translate(929.046875 0)"/>
     <use xlink:href="#DejaVuSans-56" transform="translate(960.828125 0)"/>
     <use xlink:href="#DejaVuSans-52" transform="translate(1012.921875 0)"/>
     <use xlink:href="#DejaVuSans-58" transform="translate(1074.109375 0)"/>
     <use xlink:href="#DejaVuSans-55" transform="translate(1137.484375 0)"/>
     <use xlink:href="#DejaVuSans-46" transform="translate(1176.390625 0)"/>
     <use xlink:href="#DejaVuSans-48" transform="translate(1231.375 0)"/>
    </g>
   </g>
   <g id="patch_5">
    <path d="M 439.136479 113.17446 
Q 456.388341 113.17446 472.074955 113.17446 
" style="fill: none; stroke: #4a5568; stroke-width: 1.4; stroke-linecap: round"/>
    <path d="M 468.074955 111.17446 
L 472.074955 113.17446 
L 468.074955 115.17446 
" style="fill: none; stroke: #4a5568; stroke-width: 1.4; stroke-linecap: round"/>
   </g>
   <g id="text_3">
    <g id="patch_6">
     <path d="M 494.892 134.778397 
L 649.7325 134.778397 
Q 654.0525 134.778397 654.0525 130.458397 
L 654.0525 95.890522 
Q 654.0525 91.570522 649.7325 91.570522 
L 494.892 91.570522 
Q 490.572 91.570522 490.572 95.890522 
L 490.572 130.458397 
Q 490.572 134.778397 494.892 134.778397 
z
" style="fill: #fffaf0; stroke: #dd6b20; stroke-linejoin: miter"/>
    </g>
    <!-- acute mTBI primary; chronic TBI -->
    <g style="fill: #2d3748" transform="translate(494.892 104.14596) scale(0.096 -0.096)">
     <defs>
      <path id="DejaVuSans-57" d="M 1172 4494 
L 1172 3500 
L 2356 3500 
L 2356 3053 
L 1172 3053 
L 1172 1153 
Q 1172 725 1289 603 
Q 1406 481 1766 481 
L 2356 481 
L 2356 0 
L 1766 0 
Q 1100 0 847 248 
Q 594 497 594 1153 
L 594 3053 
L 172 3053 
L 172 3500 
L 594 3500 
L 594 4494 
L 1172 4494 
z
" transform="scale(0.015625)"/>
      <path id="DejaVuSans-1e" d="M 750 3309 
L 1409 3309 
L 1409 2516 
L 750 2516 
L 750 3309 
z
M 750 794 
L 1409 794 
L 1409 256 
L 897 -744 
L 494 -744 
L 750 256 
L 750 794 
z
" transform="scale(0.015625)"/>
      <path id="DejaVuSans-4b" d="M 3513 2113 
L 3513 0 
L 2938 0 
L 2938 2094 
Q 2938 2591 2744 2837 
Q 2550 3084 2163 3084 
Q 1697 3084 1428 2787 
Q 1159 2491 1159 1978 
L 1159 0 
L 581 0 
L 581 4863 
L 1159 4863 
L 1159 2956 
Q 1366 3272 1645 3428 
Q 1925 3584 2291 3584 
Q 2894 3584 3203 3211 
Q 3513 2838 3513 2113 
z
" transform="scale(0.015625)"/>
      <path id="DejaVuSans-51" d="M 3513 2113 
L 3513 0 
L 2938 0 
L 2938 2094 
Q 2938 2591 2744 2837 
Q 2550 3084 2163 3084 
Q 1697 3084 1428 2787 
Q 1159 2491 1159 1978 
L 1159 0 
L 581 0 
L 581 3500 
L 1159 3500 
L 1159 2956 
Q 1366 3272 1645 3428 
Q 1925 3584 2291 3584 
Q 2894 3584 3203 3211 
Q 3513 2838 3513 2113 
z
" transform="scale(0.015625)"/>
     </defs>
     <use xlink:href="#DejaVuSans-44"/>
     <use xlink:href="#DejaVuSans-46" transform="translate(61.28125 0)"/>
     <use xlink:href="#DejaVuSans-58" transform="translate(116.265625 0)"/>
     <use xlink:href="#DejaVuSans-57" transform="translate(179.640625 0)"/>
     <use xlink:href="#DejaVuSans-48" transform="translate(218.84375 0)"/>
     <use xlink:href="#DejaVuSans-3" transform="translate(280.375 0)"/>
     <use xlink:href="#DejaVuSans-50" transform="translate(312.15625 0)"/>
     <use xlink:href="#DejaVuSans-37" transform="translate(409.5625 0)"/>
     <use xlink:href="#DejaVuSans-25" transform="translate(470.640625 0)"/>
     <use xlink:href="#DejaVuSans-2c" transform="translate(539.25 0)"/>
     <use xlink:href="#DejaVuSans-3" transform="translate(568.75 0)"/>
     <use xlink:href="#DejaVuSans-53" transform="translate(600.53125 0)"/>
     <use xlink:href="#DejaVuSans-55" transform="translate(664.015625 0)"/>
     <use xlink:href="#DejaVuSans-4c" transform="translate(705.125 0)"/>
     <use xlink:href="#DejaVuSans-50" transform="translate(732.90625 0)"/>
     <use xlink:href="#DejaVuSans-44" transform="translate(830.3125 0)"/>
     <use xlink:href="#DejaVuSans-55" transform="translate(891.59375 0)"/>
     <use xlink:href="#DejaVuSans-5c" transform="translate(932.703125 0)"/>
     <use xlink:href="#DejaVuSans-1e" transform="translate(991.890625 0)"/>
     <use xlink:href="#DejaVuSans-3" transform="translate(1025.578125 0)"/>
     <use xlink:href="#DejaVuSans-46" transform="translate(1057.359375 0)"/>
     <use xlink:href="#DejaVuSans-4b" transform="translate(1112.34375 0)"/>
     <use xlink:href="#DejaVuSans-55" transform="translate(1175.71875 0)"/>
     <use xlink:href="#DejaVuSans-52" transform="translate(1214.625 0)"/>
     <use xlink:href="#DejaVuSans-51" transform="translate(1275.8125 0)"/>
     <use xlink:href="#DejaVuSans-4c" transform="translate(1339.1875 0)"/>
     <use xlink:href="#DejaVuSans-46" transform="translate(1366.96875 0)"/>
     <use xlink:href="#DejaVuSans-3" transform="translate(1421.953125 0)"/>
     <use xlink:href="#DejaVuSans-37" transform="translate(1453.734375 0)"/>
     <use xlink:href="#DejaVuSans-25" transform="translate(1514.8125 0)"/>
     <use xlink:href="#DejaVuSans-2c" transform="translate(1583.421875 0)"/>
    </g>
    <!-- remains separate and batch- -->
    <g style="fill: #2d3748" transform="translate(494.892 115.668585) scale(0.096 -0.096)">
     <defs>
      <path id="DejaVuSans-45" d="M 3116 1747 
Q 3116 2381 2855 2742 
Q 2594 3103 2138 3103 
Q 1681 3103 1420 2742 
Q 1159 2381 1159 1747 
Q 1159 1113 1420 752 
Q 1681 391 2138 391 
Q 2594 391 2855 752 
Q 3116 1113 3116 1747 
z
M 1159 2969 
Q 1341 3281 1617 3432 
Q 1894 3584 2278 3584 
Q 2916 3584 3314 3078 
Q 3713 2572 3713 1747 
Q 3713 922 3314 415 
Q 2916 -91 2278 -91 
Q 1894 -91 1617 61 
Q 1341 213 1159 525 
L 1159 0 
L 581 0 
L 581 4863 
L 1159 4863 
L 1159 2969 
z
" transform="scale(0.015625)"/>
      <path id="DejaVuSans-10" d="M 313 2009 
L 1997 2009 
L 1997 1497 
L 313 1497 
L 313 2009 
z
" transform="scale(0.015625)"/>
     </defs>
     <use xlink:href="#DejaVuSans-55"/>
     <use xlink:href="#DejaVuSans-48" transform="translate(38.90625 0)"/>
     <use xlink:href="#DejaVuSans-50" transform="translate(100.4375 0)"/>
     <use xlink:href="#DejaVuSans-44" transform="translate(197.84375 0)"/>
     <use xlink:href="#DejaVuSans-4c" transform="translate(259.125 0)"/>
     <use xlink:href="#DejaVuSans-51" transform="translate(286.90625 0)"/>
     <use xlink:href="#DejaVuSans-56" transform="translate(350.28125 0)"/>
     <use xlink:href="#DejaVuSans-3" transform="translate(402.375 0)"/>
     <use xlink:href="#DejaVuSans-56" transform="translate(434.15625 0)"/>
     <use xlink:href="#DejaVuSans-48" transform="translate(486.25 0)"/>
     <use xlink:href="#DejaVuSans-53" transform="translate(547.78125 0)"/>
     <use xlink:href="#DejaVuSans-44" transform="translate(611.265625 0)"/>
     <use xlink:href="#DejaVuSans-55" transform="translate(672.546875 0)"/>
     <use xlink:href="#DejaVuSans-44" transform="translate(713.65625 0)"/>
     <use xlink:href="#DejaVuSans-57" transform="translate(774.9375 0)"/>
     <use xlink:href="#DejaVuSans-48" transform="translate(814.140625 0)"/>
     <use xlink:href="#DejaVuSans-3" transform="translate(875.671875 0)"/>
     <use xlink:href="#DejaVuSans-44" transform="translate(907.453125 0)"/>
     <use xlink:href="#DejaVuSans-51" transform="translate(968.734375 0)"/>
     <use xlink:href="#DejaVuSans-47" transform="translate(1032.109375 0)"/>
     <use xlink:href="#DejaVuSans-3" transform="translate(1095.59375 0)"/>
     <use xlink:href="#DejaVuSans-45" transform="translate(1127.375 0)"/>
     <use xlink:href="#DejaVuSans-44" transform="translate(1190.859375 0)"/>
     <use xlink:href="#DejaVuSans-57" transform="translate(1252.140625 0)"/>
     <use xlink:href="#DejaVuSans-46" transform="translate(1291.34375 0)"/>
     <use xlink:href="#DejaVuSans-4b" transform="translate(1346.328125 0)"/>
     <use xlink:href="#DejaVuSans-10" transform="translate(1409.703125 0)"/>
    </g>
    <!-- sensitive -->
    <g style="fill: #2d3748" transform="translate(494.892 127.19121) scale(0.096 -0.096)">
     <defs>
      <path id="DejaVuSans-59" d="M 191 3500 
L 800 3500 
L 1894 563 
L 2988 3500 
L 3597 3500 
L 2284 0 
L 1503 0 
L 191 3500 
z
" transform="scale(0.015625)"/>
     </defs>
     <use xlink:href="#DejaVuSans-56"/>
     <use xlink:href="#DejaVuSans-48" transform="translate(52.09375 0)"/>
     <use xlink:href="#DejaVuSans-51" transform="translate(113.625 0)"/>
     <use xlink:href="#DejaVuSans-56" transform="translate(177 0)"/>
     <use xlink:href="#DejaVuSans-4c" transform="translate(229.09375 0)"/>
     <use xlink:href="#DejaVuSans-57" transform="translate(256.875 0)"/>
     <use xlink:href="#DejaVuSans-4c" transform="translate(296.078125 0)"/>
     <use xlink:href="#DejaVuSans-59" transform="translate(323.859375 0)"/>
     <use xlink:href="#DejaVuSans-48" transform="translate(383.046875 0)"/>
    </g>
   </g>
   <g id="text_4">
    <g id="patch_7">
     <path d="M 45.702 229.136996 
L 142.922156 229.136996 
Q 148.172156 229.136996 148.172156 223.886996 
L 148.172156 186.079204 
Q 148.172156 180.829204 142.922156 180.829204 
L 45.702 180.829204 
Q 40.452 180.829204 40.452 186.079204 
L 40.452 223.886996 
Q 40.452 229.136996 45.702 229.136996 
z
" style="fill: #59a14f; opacity: 0.92"/>
    </g>
    <!-- ds005114 -->
    <g style="fill: #ffffff" transform="translate(45.702 195.108588) scale(0.105 -0.105)">
     <defs>
      <path id="DejaVuSans-17" d="M 2419 4116 
L 825 1625 
L 2419 1625 
L 2419 4116 
z
M 2253 4666 
L 3047 4666 
L 3047 1625 
L 3713 1625 
L 3713 1100 
L 3047 1100 
L 3047 0 
L 2419 0 
L 2419 1100 
L 313 1100 
L 313 1709 
L 2253 4666 
z
" transform="scale(0.015625)"/>
     </defs>
     <use xlink:href="#DejaVuSans-47"/>
     <use xlink:href="#DejaVuSans-56" transform="translate(63.484375 0)"/>
     <use xlink:href="#DejaVuSans-13" transform="translate(115.578125 0)"/>
     <use xlink:href="#DejaVuSans-13" transform="translate(179.203125 0)"/>
     <use xlink:href="#DejaVuSans-18" transform="translate(242.828125 0)"/>
     <use xlink:href="#DejaVuSans-14" transform="translate(306.453125 0)"/>
     <use xlink:href="#DejaVuSans-14" transform="translate(370.078125 0)"/>
     <use xlink:href="#DejaVuSans-17" transform="translate(433.703125 0)"/>
    </g>
    <!-- 223 SET / 223 FDT -->
    <g style="fill: #ffffff" transform="translate(45.702 207.710639) scale(0.105 -0.105)">
     <use xlink:href="#DejaVuSans-15"/>
     <use xlink:href="#DejaVuSans-15" transform="translate(63.625 0)"/>
     <use xlink:href="#DejaVuSans-16" transform="translate(127.25 0)"/>
     <use xlink:href="#DejaVuSans-3" transform="translate(190.875 0)"/>
     <use xlink:href="#DejaVuSans-36" transform="translate(222.65625 0)"/>
     <use xlink:href="#DejaVuSans-28" transform="translate(286.140625 0)"/>
     <use xlink:href="#DejaVuSans-37" transform="translate(349.328125 0)"/>
     <use xlink:href="#DejaVuSans-3" transform="translate(410.40625 0)"/>
     <use xlink:href="#DejaVuSans-12" transform="translate(442.1875 0)"/>
     <use xlink:href="#DejaVuSans-3" transform="translate(475.875 0)"/>
     <use xlink:href="#DejaVuSans-15" transform="translate(507.65625 0)"/>
     <use xlink:href="#DejaVuSans-15" transform="translate(571.28125 0)"/>
     <use xlink:href="#DejaVuSans-16" transform="translate(634.90625 0)"/>
     <use xlink:href="#DejaVuSans-3" transform="translate(698.53125 0)"/>
     <use xlink:href="#DejaVuSans-29" transform="translate(730.3125 0)"/>
     <use xlink:href="#DejaVuSans-27" transform="translate(787.828125 0)"/>
     <use xlink:href="#DejaVuSans-37" transform="translate(864.828125 0)"/>
    </g>
    <!-- 55.86 GiB -->
    <g style="fill: #ffffff" transform="translate(45.702 220.31351) scale(0.105 -0.105)">
     <defs>
      <path id="DejaVuSans-1b" d="M 2034 2216 
Q 1584 2216 1326 1975 
Q 1069 1734 1069 1313 
Q 1069 891 1326 650 
Q 1584 409 2034 409 
Q 2484 409 2743 651 
Q 3003 894 3003 1313 
Q 3003 1734 2745 1975 
Q 2488 2216 2034 2216 
z
M 1403 2484 
Q 997 2584 770 2862 
Q 544 3141 544 3541 
Q 544 4100 942 4425 
Q 1341 4750 2034 4750 
Q 2731 4750 3128 4425 
Q 3525 4100 3525 3541 
Q 3525 3141 3298 2862 
Q 3072 2584 2669 2484 
Q 3125 2378 3379 2068 
Q 3634 1759 3634 1313 
Q 3634 634 3220 271 
Q 2806 -91 2034 -91 
Q 1263 -91 848 271 
Q 434 634 434 1313 
Q 434 1759 690 2068 
Q 947 2378 1403 2484 
z
M 1172 3481 
Q 1172 3119 1398 2916 
Q 1625 2713 2034 2713 
Q 2441 2713 2670 2916 
Q 2900 3119 2900 3481 
Q 2900 3844 2670 4047 
Q 2441 4250 2034 4250 
Q 1625 4250 1398 4047 
Q 1172 3844 1172 3481 
z
" transform="scale(0.015625)"/>
      <path id="DejaVuSans-19" d="M 2113 2584 
Q 1688 2584 1439 2293 
Q 1191 2003 1191 1497 
Q 1191 994 1439 701 
Q 1688 409 2113 409 
Q 2538 409 2786 701 
Q 3034 994 3034 1497 
Q 3034 2003 2786 2293 
Q 2538 2584 2113 2584 
z
M 3366 4563 
L 3366 3988 
Q 3128 4100 2886 4159 
Q 2644 4219 2406 4219 
Q 1781 4219 1451 3797 
Q 1122 3375 1075 2522 
Q 1259 2794 1537 2939 
Q 1816 3084 2150 3084 
Q 2853 3084 3261 2657 
Q 3669 2231 3669 1497 
Q 3669 778 3244 343 
Q 2819 -91 2113 -91 
Q 1303 -91 875 529 
Q 447 1150 447 2328 
Q 447 3434 972 4092 
Q 1497 4750 2381 4750 
Q 2619 4750 2861 4703 
Q 3103 4656 3366 4563 
z
" transform="scale(0.015625)"/>
     </defs>
     <use xlink:href="#DejaVuSans-18"/>
     <use xlink:href="#DejaVuSans-18" transform="translate(63.625 0)"/>
     <use xlink:href="#DejaVuSans-11" transform="translate(127.25 0)"/>
     <use xlink:href="#DejaVuSans-1b" transform="translate(159.03125 0)"/>
     <use xlink:href="#DejaVuSans-19" transform="translate(222.65625 0)"/>
     <use xlink:href="#DejaVuSans-3" transform="translate(286.28125 0)"/>
     <use xlink:href="#DejaVuSans-2a" transform="translate(318.0625 0)"/>
     <use xlink:href="#DejaVuSans-4c" transform="translate(395.546875 0)"/>
     <use xlink:href="#DejaVuSans-25" transform="translate(423.328125 0)"/>
    </g>
   </g>
   <g id="patch_8">
    <path d="M 208.129179 204.9831 
Q 231.7949 204.9831 253.895373 204.9831 
" style="fill: none; stroke: #4a5568; stroke-width: 1.4; stroke-linecap: round"/>
    <path d="M 249.895373 202.9831 
L 253.895373 204.9831 
L 249.895373 206.9831 
" style="fill: none; stroke: #4a5568; stroke-width: 1.4; stroke-linecap: round"/>
   </g>
   <g id="text_5">
    <g id="patch_9">
     <path d="M 276.714 214.768502 
L 428.5875 214.768502 
Q 433.2225 214.768502 433.2225 210.133502 
L 433.2225 199.832698 
Q 433.2225 195.197698 428.5875 195.197698 
L 276.714 195.197698 
Q 272.079 195.197698 272.079 199.832698 
L 272.079 210.133502 
Q 272.079 214.768502 276.714 214.768502 
z
" style="fill: #edf2f7; stroke: #a0aec0; stroke-linejoin: miter"/>
    </g>
    <!-- D2 bounded cross-task check -->
    <g style="fill: #1a202c" transform="translate(276.714 207.659088) scale(0.103 -0.103)">
     <defs>
      <path id="DejaVuSans-4e" d="M 581 4863 
L 1159 4863 
L 1159 1991 
L 2875 3500 
L 3609 3500 
L 1753 1863 
L 3688 0 
L 2938 0 
L 1159 1709 
L 1159 0 
L 581 0 
L 581 4863 
z
" transform="scale(0.015625)"/>
     </defs>
     <use xlink:href="#DejaVuSans-27"/>
     <use xlink:href="#DejaVuSans-15" transform="translate(77 0)"/>
     <use xlink:href="#DejaVuSans-3" transform="translate(140.625 0)"/>
     <use xlink:href="#DejaVuSans-45" transform="translate(172.40625 0)"/>
     <use xlink:href="#DejaVuSans-52" transform="translate(235.890625 0)"/>
     <use xlink:href="#DejaVuSans-58" transform="translate(297.078125 0)"/>
     <use xlink:href="#DejaVuSans-51" transform="translate(360.453125 0)"/>
     <use xlink:href="#DejaVuSans-47" transform="translate(423.828125 0)"/>
     <use xlink:href="#DejaVuSans-48" transform="translate(487.3125 0)"/>
     <use xlink:href="#DejaVuSans-47" transform="translate(548.84375 0)"/>
     <use xlink:href="#DejaVuSans-3" transform="translate(612.328125 0)"/>
     <use xlink:href="#DejaVuSans-46" transform="translate(644.109375 0)"/>
     <use xlink:href="#DejaVuSans-55" transform="translate(699.09375 0)"/>
     <use xlink:href="#DejaVuSans-52" transform="translate(738 0)"/>
     <use xlink:href="#DejaVuSans-56" transform="translate(799.1875 0)"/>
     <use xlink:href="#DejaVuSans-56" transform="translate(851.28125 0)"/>
     <use xlink:href="#DejaVuSans-10" transform="translate(903.375 0)"/>
     <use xlink:href="#DejaVuSans-57" transform="translate(939.453125 0)"/>
     <use xlink:href="#DejaVuSans-44" transform="translate(978.65625 0)"/>
     <use xlink:href="#DejaVuSans-56" transform="translate(1039.9375 0)"/>
     <use xlink:href="#DejaVuSans-4e" transform="translate(1092.03125 0)"/>
     <use xlink:href="#DejaVuSans-3" transform="translate(1149.9375 0)"/>
     <use xlink:href="#DejaVuSans-46" transform="translate(1181.71875 0)"/>
     <use xlink:href="#DejaVuSans-4b" transform="translate(1236.703125 0)"/>
     <use xlink:href="#DejaVuSans-48" transform="translate(1300.078125 0)"/>
     <use xlink:href="#DejaVuSans-46" transform="translate(1361.609375 0)"/>
     <use xlink:href="#DejaVuSans-4e" transform="translate(1416.59375 0)"/>
    </g>
   </g>
   <g id="patch_10">
    <path d="M 439.136479 204.9831 
Q 456.388341 204.9831 472.074955 204.9831 
" style="fill: none; stroke: #4a5568; stroke-width: 1.4; stroke-linecap: round"/>
    <path d="M 468.074955 202.9831 
L 472.074955 204.9831 
L 468.074955 206.9831 
" style="fill: none; stroke: #4a5568; stroke-width: 1.4; stroke-linecap: round"/>
   </g>
   <g id="text_6">
    <g id="patch_11">
     <path d="M 494.892 220.825725 
L 644.973 220.825725 
Q 649.293 220.825725 649.293 216.505725 
L 649.293 193.460475 
Q 649.293 189.140475 644.973 189.140475 
L 494.892 189.140475 
Q 490.572 189.140475 490.572 193.460475 
L 490.572 216.505725 
Q 490.572 220.825725 494.892 220.825725 
z
" style="fill: #fffaf0; stroke: #dd6b20; stroke-linejoin: miter"/>
    </g>
    <!-- D2 overlaps by Original_ID; not -->
    <g style="fill: #2d3748" transform="translate(494.892 201.715912) scale(0.096 -0.096)">
     <defs>
      <path id="DejaVuSans-4f" d="M 603 4863 
L 1178 4863 
L 1178 0 
L 603 0 
L 603 4863 
z
" transform="scale(0.015625)"/>
      <path id="DejaVuSans-32" d="M 2522 4238 
Q 1834 4238 1429 3725 
Q 1025 3213 1025 2328 
Q 1025 1447 1429 934 
Q 1834 422 2522 422 
Q 3209 422 3611 934 
Q 4013 1447 4013 2328 
Q 4013 3213 3611 3725 
Q 3209 4238 2522 4238 
z
M 2522 4750 
Q 3503 4750 4090 4092 
Q 4678 3434 4678 2328 
Q 4678 1225 4090 567 
Q 3503 -91 2522 -91 
Q 1538 -91 948 565 
Q 359 1222 359 2328 
Q 359 3434 948 4092 
Q 1538 4750 2522 4750 
z
" transform="scale(0.015625)"/>
      <path id="DejaVuSans-4a" d="M 2906 1791 
Q 2906 2416 2648 2759 
Q 2391 3103 1925 3103 
Q 1463 3103 1205 2759 
Q 947 2416 947 1791 
Q 947 1169 1205 825 
Q 1463 481 1925 481 
Q 2391 481 2648 825 
Q 2906 1169 2906 1791 
z
M 3481 434 
Q 3481 -459 3084 -895 
Q 2688 -1331 1869 -1331 
Q 1566 -1331 1297 -1286 
Q 1028 -1241 775 -1147 
L 775 -588 
Q 1028 -725 1275 -790 
Q 1522 -856 1778 -856 
Q 2344 -856 2625 -561 
Q 2906 -266 2906 331 
L 2906 616 
Q 2728 306 2450 153 
Q 2172 0 1784 0 
Q 1141 0 747 490 
Q 353 981 353 1791 
Q 353 2603 747 3093 
Q 1141 3584 1784 3584 
Q 2172 3584 2450 3431 
Q 2728 3278 2906 2969 
L 2906 3500 
L 3481 3500 
L 3481 434 
z
" transform="scale(0.015625)"/>
      <path id="DejaVuSans-42" d="M 3263 -1063 
L 3263 -1509 
L -63 -1509 
L -63 -1063 
L 3263 -1063 
z
" transform="scale(0.015625)"/>
     </defs>
     <use xlink:href="#DejaVuSans-27"/>
     <use xlink:href="#DejaVuSans-15" transform="translate(77 0)"/>
     <use xlink:href="#DejaVuSans-3" transform="translate(140.625 0)"/>
     <use xlink:href="#DejaVuSans-52" transform="translate(172.40625 0)"/>
     <use xlink:href="#DejaVuSans-59" transform="translate(233.59375 0)"/>
     <use xlink:href="#DejaVuSans-48" transform="translate(292.78125 0)"/>
     <use xlink:href="#DejaVuSans-55" transform="translate(354.3125 0)"/>
     <use xlink:href="#DejaVuSans-4f" transform="translate(395.421875 0)"/>
     <use xlink:href="#DejaVuSans-44" transform="translate(423.203125 0)"/>
     <use xlink:href="#DejaVuSans-53" transform="translate(484.484375 0)"/>
     <use xlink:href="#DejaVuSans-56" transform="translate(547.96875 0)"/>
     <use xlink:href="#DejaVuSans-3" transform="translate(600.0625 0)"/>
     <use xlink:href="#DejaVuSans-45" transform="translate(631.84375 0)"/>
     <use xlink:href="#DejaVuSans-5c" transform="translate(695.328125 0)"/>
     <use xlink:href="#DejaVuSans-3" transform="translate(754.515625 0)"/>
     <use xlink:href="#DejaVuSans-32" transform="translate(786.296875 0)"/>
     <use xlink:href="#DejaVuSans-55" transform="translate(865.015625 0)"/>
     <use xlink:href="#DejaVuSans-4c" transform="translate(906.125 0)"/>
     <use xlink:href="#DejaVuSans-4a" transform="translate(933.90625 0)"/>
     <use xlink:href="#DejaVuSans-4c" transform="translate(997.390625 0)"/>
     <use xlink:href="#DejaVuSans-51" transform="translate(1025.171875 0)"/>
     <use xlink:href="#DejaVuSans-44" transform="translate(1088.546875 0)"/>
     <use xlink:href="#DejaVuSans-4f" transform="translate(1149.828125 0)"/>
     <use xlink:href="#DejaVuSans-42" transform="translate(1177.609375 0)"/>
     <use xlink:href="#DejaVuSans-2c" transform="translate(1227.609375 0)"/>
     <use xlink:href="#DejaVuSans-27" transform="translate(1257.109375 0)"/>
     <use xlink:href="#DejaVuSans-1e" transform="translate(1334.109375 0)"/>
     <use xlink:href="#DejaVuSans-3" transform="translate(1367.796875 0)"/>
     <use xlink:href="#DejaVuSans-51" transform="translate(1399.578125 0)"/>
     <use xlink:href="#DejaVuSans-52" transform="translate(1462.953125 0)"/>
     <use xlink:href="#DejaVuSans-57" transform="translate(1524.140625 0)"/>
    </g>
    <!-- independent cohort evidence -->
    <g style="fill: #2d3748" transform="translate(494.892 213.238537) scale(0.096 -0.096)">
     <use xlink:href="#DejaVuSans-4c"/>
     <use xlink:href="#DejaVuSans-51" transform="translate(27.78125 0)"/>
     <use xlink:href="#DejaVuSans-47" transform="translate(91.15625 0)"/>
     <use xlink:href="#DejaVuSans-48" transform="translate(154.640625 0)"/>
     <use xlink:href="#DejaVuSans-53" transform="translate(216.171875 0)"/>
     <use xlink:href="#DejaVuSans-48" transform="translate(279.65625 0)"/>
     <use xlink:href="#DejaVuSans-51" transform="translate(341.1875 0)"/>
     <use xlink:href="#DejaVuSans-47" transform="translate(404.5625 0)"/>
     <use xlink:href="#DejaVuSans-48" transform="translate(468.046875 0)"/>
     <use xlink:href="#DejaVuSans-51" transform="translate(529.578125 0)"/>
     <use xlink:href="#DejaVuSans-57" transform="translate(592.953125 0)"/>
     <use xlink:href="#DejaVuSans-3" transform="translate(632.15625 0)"/>
     <use xlink:href="#DejaVuSans-46" transform="translate(663.9375 0)"/>
     <use xlink:href="#DejaVuSans-52" transform="translate(718.921875 0)"/>
     <use xlink:href="#DejaVuSans-4b" transform="translate(780.109375 0)"/>
     <use xlink:href="#DejaVuSans-52" transform="translate(843.484375 0)"/>
     <use xlink:href="#DejaVuSans-55" transform="translate(904.671875 0)"/>
     <use xlink:href="#DejaVuSans-57" transform="translate(945.78125 0)"/>
     <use xlink:href="#DejaVuSans-3" transform="translate(984.984375 0)"/>
     <use xlink:href="#DejaVuSans-48" transform="translate(1016.765625 0)"/>
     <use xlink:href="#DejaVuSans-59" transform="translate(1078.296875 0)"/>
     <use xlink:href="#DejaVuSans-4c" transform="translate(1137.484375 0)"/>
     <use xlink:href="#DejaVuSans-47" transform="translate(1165.265625 0)"/>
     <use xlink:href="#DejaVuSans-48" transform="translate(1228.75 0)"/>
     <use xlink:href="#DejaVuSans-51" transform="translate(1290.28125 0)"/>
     <use xlink:href="#DejaVuSans-46" transform="translate(1353.65625 0)"/>
     <use xlink:href="#DejaVuSans-48" transform="translate(1408.640625 0)"/>
    </g>
   </g>
   <g id="text_7">
    <g id="patch_12">
     <path d="M 45.702 320.945636 
L 142.922156 320.945636 
Q 148.172156 320.945636 148.172156 315.695636 
L 148.172156 277.887844 
Q 148.172156 272.637844 142.922156 272.637844 
L 45.702 272.637844 
Q 40.452 272.637844 40.452 277.887844 
L 40.452 315.695636 
Q 40.452 320.945636 45.702 320.945636 
z
" style="fill: #f28e2b; opacity: 0.92"/>
    </g>
    <!-- ds003523 -->
    <g style="fill: #ffffff" transform="translate(45.702 286.917228) scale(0.105 -0.105)">
     <use xlink:href="#DejaVuSans-47"/>
     <use xlink:href="#DejaVuSans-56" transform="translate(63.484375 0)"/>
     <use xlink:href="#DejaVuSans-13" transform="translate(115.578125 0)"/>
     <use xlink:href="#DejaVuSans-13" transform="translate(179.203125 0)"/>
     <use xlink:href="#DejaVuSans-16" transform="translate(242.828125 0)"/>
     <use xlink:href="#DejaVuSans-18" transform="translate(306.453125 0)"/>
     <use xlink:href="#DejaVuSans-15" transform="translate(370.078125 0)"/>
     <use xlink:href="#DejaVuSans-16" transform="translate(433.703125 0)"/>
    </g>
    <!-- 221 SET / 221 FDT -->
    <g style="fill: #ffffff" transform="translate(45.702 299.519279) scale(0.105 -0.105)">
     <use xlink:href="#DejaVuSans-15"/>
     <use xlink:href="#DejaVuSans-15" transform="translate(63.625 0)"/>
     <use xlink:href="#DejaVuSans-14" transform="translate(127.25 0)"/>
     <use xlink:href="#DejaVuSans-3" transform="translate(190.875 0)"/>
     <use xlink:href="#DejaVuSans-36" transform="translate(222.65625 0)"/>
     <use xlink:href="#DejaVuSans-28" transform="translate(286.140625 0)"/>
     <use xlink:href="#DejaVuSans-37" transform="translate(349.328125 0)"/>
     <use xlink:href="#DejaVuSans-3" transform="translate(410.40625 0)"/>
     <use xlink:href="#DejaVuSans-12" transform="translate(442.1875 0)"/>
     <use xlink:href="#DejaVuSans-3" transform="translate(475.875 0)"/>
     <use xlink:href="#DejaVuSans-15" transform="translate(507.65625 0)"/>
     <use xlink:href="#DejaVuSans-15" transform="translate(571.28125 0)"/>
     <use xlink:href="#DejaVuSans-14" transform="translate(634.90625 0)"/>
     <use xlink:href="#DejaVuSans-3" transform="translate(698.53125 0)"/>
     <use xlink:href="#DejaVuSans-29" transform="translate(730.3125 0)"/>
     <use xlink:href="#DejaVuSans-27" transform="translate(787.828125 0)"/>
     <use xlink:href="#DejaVuSans-37" transform="translate(864.828125 0)"/>
    </g>
    <!-- 37.53 GiB -->
    <g style="fill: #ffffff" transform="translate(45.702 312.12215) scale(0.105 -0.105)">
     <defs>
      <path id="DejaVuSans-1a" d="M 525 4666 
L 3525 4666 
L 3525 4397 
L 1831 0 
L 1172 0 
L 2766 4134 
L 525 4134 
L 525 4666 
z
" transform="scale(0.015625)"/>
     </defs>
     <use xlink:href="#DejaVuSans-16"/>
     <use xlink:href="#DejaVuSans-1a" transform="translate(63.625 0)"/>
     <use xlink:href="#DejaVuSans-11" transform="translate(127.25 0)"/>
     <use xlink:href="#DejaVuSans-18" transform="translate(159.03125 0)"/>
     <use xlink:href="#DejaVuSans-16" transform="translate(222.65625 0)"/>
     <use xlink:href="#DejaVuSans-3" transform="translate(286.28125 0)"/>
     <use xlink:href="#DejaVuSans-2a" transform="translate(318.0625 0)"/>
     <use xlink:href="#DejaVuSans-4c" transform="translate(395.546875 0)"/>
     <use xlink:href="#DejaVuSans-25" transform="translate(423.328125 0)"/>
    </g>
   </g>
   <g id="patch_13">
    <path d="M 208.129179 296.79174 
Q 231.7949 296.79174 253.895373 296.79174 
" style="fill: none; stroke: #4a5568; stroke-width: 1.4; stroke-linecap: round"/>
    <path d="M 249.895373 294.79174 
L 253.895373 296.79174 
L 249.895373 298.79174 
" style="fill: none; stroke: #4a5568; stroke-width: 1.4; stroke-linecap: round"/>
   </g>
   <g id="text_8">
    <g id="patch_14">
     <path d="M 276.714 306.577142 
L 428.5875 306.577142 
Q 433.2225 306.577142 433.2225 301.942142 
L 433.2225 291.641338 
Q 433.2225 287.006338 428.5875 287.006338 
L 276.714 287.006338 
Q 272.079 287.006338 272.079 291.641338 
L 272.079 301.942142 
Q 272.079 306.577142 276.714 306.577142 
z
" style="fill: #edf2f7; stroke: #a0aec0; stroke-linejoin: miter"/>
    </g>
    <!-- D2 bounded cross-task check -->
    <g style="fill: #1a202c" transform="translate(276.714 299.467728) scale(0.103 -0.103)">
     <use xlink:href="#DejaVuSans-27"/>
     <use xlink:href="#DejaVuSans-15" transform="translate(77 0)"/>
     <use xlink:href="#DejaVuSans-3" transform="translate(140.625 0)"/>
     <use xlink:href="#DejaVuSans-45" transform="translate(172.40625 0)"/>
     <use xlink:href="#DejaVuSans-52" transform="translate(235.890625 0)"/>
     <use xlink:href="#DejaVuSans-58" transform="translate(297.078125 0)"/>
     <use xlink:href="#DejaVuSans-51" transform="translate(360.453125 0)"/>
     <use xlink:href="#DejaVuSans-47" transform="translate(423.828125 0)"/>
     <use xlink:href="#DejaVuSans-48" transform="translate(487.3125 0)"/>
     <use xlink:href="#DejaVuSans-47" transform="translate(548.84375 0)"/>
     <use xlink:href="#DejaVuSans-3" transform="translate(612.328125 0)"/>
     <use xlink:href="#DejaVuSans-46" transform="translate(644.109375 0)"/>
     <use xlink:href="#DejaVuSans-55" transform="translate(699.09375 0)"/>
     <use xlink:href="#DejaVuSans-52" transform="translate(738 0)"/>
     <use xlink:href="#DejaVuSans-56" transform="translate(799.1875 0)"/>
     <use xlink:href="#DejaVuSans-56" transform="translate(851.28125 0)"/>
     <use xlink:href="#DejaVuSans-10" transform="translate(903.375 0)"/>
     <use xlink:href="#DejaVuSans-57" transform="translate(939.453125 0)"/>
     <use xlink:href="#DejaVuSans-44" transform="translate(978.65625 0)"/>
     <use xlink:href="#DejaVuSans-56" transform="translate(1039.9375 0)"/>
     <use xlink:href="#DejaVuSans-4e" transform="translate(1092.03125 0)"/>
     <use xlink:href="#DejaVuSans-3" transform="translate(1149.9375 0)"/>
     <use xlink:href="#DejaVuSans-46" transform="translate(1181.71875 0)"/>
     <use xlink:href="#DejaVuSans-4b" transform="translate(1236.703125 0)"/>
     <use xlink:href="#DejaVuSans-48" transform="translate(1300.078125 0)"/>
     <use xlink:href="#DejaVuSans-46" transform="translate(1361.609375 0)"/>
     <use xlink:href="#DejaVuSans-4e" transform="translate(1416.59375 0)"/>
    </g>
   </g>
   <g id="patch_15">
    <path d="M 439.136479 296.79174 
Q 456.388341 296.79174 472.074955 296.79174 
" style="fill: none; stroke: #4a5568; stroke-width: 1.4; stroke-linecap: round"/>
    <path d="M 468.074955 294.79174 
L 472.074955 296.79174 
L 468.074955 298.79174 
" style="fill: none; stroke: #4a5568; stroke-width: 1.4; stroke-linecap: round"/>
   </g>
   <g id="text_9">
    <g id="patch_16">
     <path d="M 494.892 312.634365 
L 644.973 312.634365 
Q 649.293 312.634365 649.293 308.314365 
L 649.293 285.269115 
Q 649.293 280.949115 644.973 280.949115 
L 494.892 280.949115 
Q 490.572 280.949115 490.572 285.269115 
L 490.572 308.314365 
Q 490.572 312.634365 494.892 312.634365 
z
" style="fill: #fffaf0; stroke: #dd6b20; stroke-linejoin: miter"/>
    </g>
    <!-- D2 overlaps by Original_ID; not -->
    <g style="fill: #2d3748" transform="translate(494.892 293.524552) scale(0.096 -0.096)">
     <use xlink:href="#DejaVuSans-27"/>
     <use xlink:href="#DejaVuSans-15" transform="translate(77 0)"/>
     <use xlink:href="#DejaVuSans-3" transform="translate(140.625 0)"/>
     <use xlink:href="#DejaVuSans-52" transform="translate(172.40625 0)"/>
     <use xlink:href="#DejaVuSans-59" transform="translate(233.59375 0)"/>
     <use xlink:href="#DejaVuSans-48" transform="translate(292.78125 0)"/>
     <use xlink:href="#DejaVuSans-55" transform="translate(354.3125 0)"/>
     <use xlink:href="#DejaVuSans-4f" transform="translate(395.421875 0)"/>
     <use xlink:href="#DejaVuSans-44" transform="translate(423.203125 0)"/>
     <use xlink:href="#DejaVuSans-53" transform="translate(484.484375 0)"/>
     <use xlink:href="#DejaVuSans-56" transform="translate(547.96875 0)"/>
     <use xlink:href="#DejaVuSans-3" transform="translate(600.0625 0)"/>
     <use xlink:href="#DejaVuSans-45" transform="translate(631.84375 0)"/>
     <use xlink:href="#DejaVuSans-5c" transform="translate(695.328125 0)"/>
     <use xlink:href="#DejaVuSans-3" transform="translate(754.515625 0)"/>
     <use xlink:href="#DejaVuSans-32" transform="translate(786.296875 0)"/>
     <use xlink:href="#DejaVuSans-55" transform="translate(865.015625 0)"/>
     <use xlink:href="#DejaVuSans-4c" transform="translate(906.125 0)"/>
     <use xlink:href="#DejaVuSans-4a" transform="translate(933.90625 0)"/>
     <use xlink:href="#DejaVuSans-4c" transform="translate(997.390625 0)"/>
     <use xlink:href="#DejaVuSans-51" transform="translate(1025.171875 0)"/>
     <use xlink:href="#DejaVuSans-44" transform="translate(1088.546875 0)"/>
     <use xlink:href="#DejaVuSans-4f" transform="translate(1149.828125 0)"/>
     <use xlink:href="#DejaVuSans-42" transform="translate(1177.609375 0)"/>
     <use xlink:href="#DejaVuSans-2c" transform="translate(1227.609375 0)"/>
     <use xlink:href="#DejaVuSans-27" transform="translate(1257.109375 0)"/>
     <use xlink:href="#DejaVuSans-1e" transform="translate(1334.109375 0)"/>
     <use xlink:href="#DejaVuSans-3" transform="translate(1367.796875 0)"/>
     <use xlink:href="#DejaVuSans-51" transform="translate(1399.578125 0)"/>
     <use xlink:href="#DejaVuSans-52" transform="translate(1462.953125 0)"/>
     <use xlink:href="#DejaVuSans-57" transform="translate(1524.140625 0)"/>
    </g>
    <!-- independent cohort evidence -->
    <g style="fill: #2d3748" transform="translate(494.892 305.047177) scale(0.096 -0.096)">
     <use xlink:href="#DejaVuSans-4c"/>
     <use xlink:href="#DejaVuSans-51" transform="translate(27.78125 0)"/>
     <use xlink:href="#DejaVuSans-47" transform="translate(91.15625 0)"/>
     <use xlink:href="#DejaVuSans-48" transform="translate(154.640625 0)"/>
     <use xlink:href="#DejaVuSans-53" transform="translate(216.171875 0)"/>
     <use xlink:href="#DejaVuSans-48" transform="translate(279.65625 0)"/>
     <use xlink:href="#DejaVuSans-51" transform="translate(341.1875 0)"/>
     <use xlink:href="#DejaVuSans-47" transform="translate(404.5625 0)"/>
     <use xlink:href="#DejaVuSans-48" transform="translate(468.046875 0)"/>
     <use xlink:href="#DejaVuSans-51" transform="translate(529.578125 0)"/>
     <use xlink:href="#DejaVuSans-57" transform="translate(592.953125 0)"/>
     <use xlink:href="#DejaVuSans-3" transform="translate(632.15625 0)"/>
     <use xlink:href="#DejaVuSans-46" transform="translate(663.9375 0)"/>
     <use xlink:href="#DejaVuSans-52" transform="translate(718.921875 0)"/>
     <use xlink:href="#DejaVuSans-4b" transform="translate(780.109375 0)"/>
     <use xlink:href="#DejaVuSans-52" transform="translate(843.484375 0)"/>
     <use xlink:href="#DejaVuSans-55" transform="translate(904.671875 0)"/>
     <use xlink:href="#DejaVuSans-57" transform="translate(945.78125 0)"/>
     <use xlink:href="#DejaVuSans-3" transform="translate(984.984375 0)"/>
     <use xlink:href="#DejaVuSans-48" transform="translate(1016.765625 0)"/>
     <use xlink:href="#DejaVuSans-59" transform="translate(1078.296875 0)"/>
     <use xlink:href="#DejaVuSans-4c" transform="translate(1137.484375 0)"/>
     <use xlink:href="#DejaVuSans-47" transform="translate(1165.265625 0)"/>
     <use xlink:href="#DejaVuSans-48" transform="translate(1228.75 0)"/>
     <use xlink:href="#DejaVuSans-51" transform="translate(1290.28125 0)"/>
     <use xlink:href="#DejaVuSans-46" transform="translate(1353.65625 0)"/>
     <use xlink:href="#DejaVuSans-48" transform="translate(1408.640625 0)"/>
    </g>
   </g>
   <g id="text_10">
    <g id="patch_17">
     <path d="M 45.702 404.770916 
L 129.560906 404.770916 
Q 134.810906 404.770916 134.810906 399.520916 
L 134.810906 361.713124 
Q 134.810906 356.463124 129.560906 356.463124 
L 45.702 356.463124 
Q 40.452 356.463124 40.452 361.713124 
L 40.452 399.520916 
Q 40.452 404.770916 45.702 404.770916 
z
" style="fill: #8e6c8a; opacity: 0.92"/>
    </g>
    <!-- ds003490 -->
    <g style="fill: #ffffff" transform="translate(45.702 370.742508) scale(0.105 -0.105)">
     <defs>
      <path id="DejaVuSans-1c" d="M 703 97 
L 703 672 
Q 941 559 1184 500 
Q 1428 441 1663 441 
Q 2288 441 2617 861 
Q 2947 1281 2994 2138 
Q 2813 1869 2534 1725 
Q 2256 1581 1919 1581 
Q 1219 1581 811 2004 
Q 403 2428 403 3163 
Q 403 3881 828 4315 
Q 1253 4750 1959 4750 
Q 2769 4750 3195 4129 
Q 3622 3509 3622 2328 
Q 3622 1225 3098 567 
Q 2575 -91 1691 -91 
Q 1453 -91 1209 -44 
Q 966 3 703 97 
z
M 1959 2075 
Q 2384 2075 2632 2365 
Q 2881 2656 2881 3163 
Q 2881 3666 2632 3958 
Q 2384 4250 1959 4250 
Q 1534 4250 1286 3958 
Q 1038 3666 1038 3163 
Q 1038 2656 1286 2365 
Q 1534 2075 1959 2075 
z
" transform="scale(0.015625)"/>
     </defs>
     <use xlink:href="#DejaVuSans-47"/>
     <use xlink:href="#DejaVuSans-56" transform="translate(63.484375 0)"/>
     <use xlink:href="#DejaVuSans-13" transform="translate(115.578125 0)"/>
     <use xlink:href="#DejaVuSans-13" transform="translate(179.203125 0)"/>
     <use xlink:href="#DejaVuSans-16" transform="translate(242.828125 0)"/>
     <use xlink:href="#DejaVuSans-17" transform="translate(306.453125 0)"/>
     <use xlink:href="#DejaVuSans-1c" transform="translate(370.078125 0)"/>
     <use xlink:href="#DejaVuSans-13" transform="translate(433.703125 0)"/>
    </g>
    <!-- 75 SET / 75 FDT -->
    <g style="fill: #ffffff" transform="translate(45.702 383.344559) scale(0.105 -0.105)">
     <use xlink:href="#DejaVuSans-1a"/>
     <use xlink:href="#DejaVuSans-18" transform="translate(63.625 0)"/>
     <use xlink:href="#DejaVuSans-3" transform="translate(127.25 0)"/>
     <use xlink:href="#DejaVuSans-36" transform="translate(159.03125 0)"/>
     <use xlink:href="#DejaVuSans-28" transform="translate(222.515625 0)"/>
     <use xlink:href="#DejaVuSans-37" transform="translate(285.703125 0)"/>
     <use xlink:href="#DejaVuSans-3" transform="translate(346.78125 0)"/>
     <use xlink:href="#DejaVuSans-12" transform="translate(378.5625 0)"/>
     <use xlink:href="#DejaVuSans-3" transform="translate(412.25 0)"/>
     <use xlink:href="#DejaVuSans-1a" transform="translate(444.03125 0)"/>
     <use xlink:href="#DejaVuSans-18" transform="translate(507.65625 0)"/>
     <use xlink:href="#DejaVuSans-3" transform="translate(571.28125 0)"/>
     <use xlink:href="#DejaVuSans-29" transform="translate(603.0625 0)"/>
     <use xlink:href="#DejaVuSans-27" transform="translate(660.578125 0)"/>
     <use xlink:href="#DejaVuSans-37" transform="translate(737.578125 0)"/>
    </g>
    <!-- 5.843 GiB -->
    <g style="fill: #ffffff" transform="translate(45.702 395.94743) scale(0.105 -0.105)">
     <use xlink:href="#DejaVuSans-18"/>
     <use xlink:href="#DejaVuSans-11" transform="translate(63.625 0)"/>
     <use xlink:href="#DejaVuSans-1b" transform="translate(95.40625 0)"/>
     <use xlink:href="#DejaVuSans-17" transform="translate(159.03125 0)"/>
     <use xlink:href="#DejaVuSans-16" transform="translate(222.65625 0)"/>
     <use xlink:href="#DejaVuSans-3" transform="translate(286.28125 0)"/>
     <use xlink:href="#DejaVuSans-2a" transform="translate(318.0625 0)"/>
     <use xlink:href="#DejaVuSans-4c" transform="translate(395.546875 0)"/>
     <use xlink:href="#DejaVuSans-25" transform="translate(423.328125 0)"/>
    </g>
   </g>
   <g id="patch_18">
    <path d="M 208.129179 380.61702 
Q 231.7949 380.61702 253.895373 380.61702 
" style="fill: none; stroke: #4a5568; stroke-width: 1.4; stroke-linecap: round"/>
    <path d="M 249.895373 378.61702 
L 253.895373 380.61702 
L 249.895373 382.61702 
" style="fill: none; stroke: #4a5568; stroke-width: 1.4; stroke-linecap: round"/>
   </g>
   <g id="text_11">
    <g id="patch_19">
     <path d="M 276.714 397.614836 
L 403.474813 397.614836 
Q 408.109813 397.614836 408.109813 392.979836 
L 408.109813 368.254204 
Q 408.109813 363.619204 403.474813 363.619204 
L 276.714 363.619204 
Q 272.079 363.619204 272.079 368.254204 
L 272.079 392.979836 
Q 272.079 397.614836 276.714 397.614836 
z
" style="fill: #edf2f7; stroke: #a0aec0; stroke-linejoin: miter"/>
    </g>
    <!-- comparator and pipeline -->
    <g style="fill: #1a202c" transform="translate(276.714 377.1116) scale(0.103 -0.103)">
     <use xlink:href="#DejaVuSans-46"/>
     <use xlink:href="#DejaVuSans-52" transform="translate(54.984375 0)"/>
     <use xlink:href="#DejaVuSans-50" transform="translate(116.171875 0)"/>
     <use xlink:href="#DejaVuSans-53" transform="translate(213.578125 0)"/>
     <use xlink:href="#DejaVuSans-44" transform="translate(277.0625 0)"/>
     <use xlink:href="#DejaVuSans-55" transform="translate(338.34375 0)"/>
     <use xlink:href="#DejaVuSans-44" transform="translate(379.453125 0)"/>
     <use xlink:href="#DejaVuSans-57" transform="translate(440.734375 0)"/>
     <use xlink:href="#DejaVuSans-52" transform="translate(479.9375 0)"/>
     <use xlink:href="#DejaVuSans-55" transform="translate(541.125 0)"/>
     <use xlink:href="#DejaVuSans-3" transform="translate(582.234375 0)"/>
     <use xlink:href="#DejaVuSans-44" transform="translate(614.015625 0)"/>
     <use xlink:href="#DejaVuSans-51" transform="translate(675.296875 0)"/>
     <use xlink:href="#DejaVuSans-47" transform="translate(738.671875 0)"/>
     <use xlink:href="#DejaVuSans-3" transform="translate(802.15625 0)"/>
     <use xlink:href="#DejaVuSans-53" transform="translate(833.9375 0)"/>
     <use xlink:href="#DejaVuSans-4c" transform="translate(897.421875 0)"/>
     <use xlink:href="#DejaVuSans-53" transform="translate(925.203125 0)"/>
     <use xlink:href="#DejaVuSans-48" transform="translate(988.6875 0)"/>
     <use xlink:href="#DejaVuSans-4f" transform="translate(1050.21875 0)"/>
     <use xlink:href="#DejaVuSans-4c" transform="translate(1078 0)"/>
     <use xlink:href="#DejaVuSans-51" transform="translate(1105.78125 0)"/>
     <use xlink:href="#DejaVuSans-48" transform="translate(1169.15625 0)"/>
    </g>
    <!-- rehearsal only -->
    <g style="fill: #1a202c" transform="translate(276.714 389.474416) scale(0.103 -0.103)">
     <use xlink:href="#DejaVuSans-55"/>
     <use xlink:href="#DejaVuSans-48" transform="translate(38.90625 0)"/>
     <use xlink:href="#DejaVuSans-4b" transform="translate(100.4375 0)"/>
     <use xlink:href="#DejaVuSans-48" transform="translate(163.8125 0)"/>
     <use xlink:href="#DejaVuSans-44" transform="translate(225.34375 0)"/>
     <use xlink:href="#DejaVuSans-55" transform="translate(286.625 0)"/>
     <use xlink:href="#DejaVuSans-56" transform="translate(327.734375 0)"/>
     <use xlink:href="#DejaVuSans-44" transform="translate(379.828125 0)"/>
     <use xlink:href="#DejaVuSans-4f" transform="translate(441.109375 0)"/>
     <use xlink:href="#DejaVuSans-3" transform="translate(468.890625 0)"/>
     <use xlink:href="#DejaVuSans-52" transform="translate(500.671875 0)"/>
     <use xlink:href="#DejaVuSans-51" transform="translate(561.859375 0)"/>
     <use xlink:href="#DejaVuSans-4f" transform="translate(625.234375 0)"/>
     <use xlink:href="#DejaVuSans-5c" transform="translate(653.015625 0)"/>
    </g>
   </g>
   <g id="patch_20">
    <path d="M 439.136479 380.61702 
Q 456.388341 380.61702 472.074955 380.61702 
" style="fill: none; stroke: #4a5568; stroke-width: 1.4; stroke-linecap: round"/>
    <path d="M 468.074955 378.61702 
L 472.074955 380.61702 
L 468.074955 382.61702 
" style="fill: none; stroke: #4a5568; stroke-width: 1.4; stroke-linecap: round"/>
   </g>
   <g id="text_12">
    <g id="patch_21">
     <path d="M 494.892 396.459645 
L 617.112 396.459645 
Q 621.432 396.459645 621.432 392.139645 
L 621.432 369.094395 
Q 621.432 364.774395 617.112 364.774395 
L 494.892 364.774395 
Q 490.572 364.774395 490.572 369.094395 
L 490.572 392.139645 
Q 490.572 396.459645 494.892 396.459645 
z
" style="fill: #fffaf0; stroke: #dd6b20; stroke-linejoin: miter"/>
    </g>
    <!-- not a TBI dataset and not -->
    <g style="fill: #2d3748" transform="translate(494.892 377.349832) scale(0.096 -0.096)">
     <use xlink:href="#DejaVuSans-51"/>
     <use xlink:href="#DejaVuSans-52" transform="translate(63.375 0)"/>
     <use xlink:href="#DejaVuSans-57" transform="translate(124.5625 0)"/>
     <use xlink:href="#DejaVuSans-3" transform="translate(163.765625 0)"/>
     <use xlink:href="#DejaVuSans-44" transform="translate(195.546875 0)"/>
     <use xlink:href="#DejaVuSans-3" transform="translate(256.828125 0)"/>
     <use xlink:href="#DejaVuSans-37" transform="translate(288.609375 0)"/>
     <use xlink:href="#DejaVuSans-25" transform="translate(349.6875 0)"/>
     <use xlink:href="#DejaVuSans-2c" transform="translate(418.296875 0)"/>
     <use xlink:href="#DejaVuSans-3" transform="translate(447.796875 0)"/>
     <use xlink:href="#DejaVuSans-47" transform="translate(479.578125 0)"/>
     <use xlink:href="#DejaVuSans-44" transform="translate(543.0625 0)"/>
     <use xlink:href="#DejaVuSans-57" transform="translate(604.34375 0)"/>
     <use xlink:href="#DejaVuSans-44" transform="translate(643.546875 0)"/>
     <use xlink:href="#DejaVuSans-56" transform="translate(704.828125 0)"/>
     <use xlink:href="#DejaVuSans-48" transform="translate(756.921875 0)"/>
     <use xlink:href="#DejaVuSans-57" transform="translate(818.453125 0)"/>
     <use xlink:href="#DejaVuSans-3" transform="translate(857.65625 0)"/>
     <use xlink:href="#DejaVuSans-44" transform="translate(889.4375 0)"/>
     <use xlink:href="#DejaVuSans-51" transform="translate(950.71875 0)"/>
     <use xlink:href="#DejaVuSans-47" transform="translate(1014.09375 0)"/>
     <use xlink:href="#DejaVuSans-3" transform="translate(1077.578125 0)"/>
     <use xlink:href="#DejaVuSans-51" transform="translate(1109.359375 0)"/>
     <use xlink:href="#DejaVuSans-52" transform="translate(1172.734375 0)"/>
     <use xlink:href="#DejaVuSans-57" transform="translate(1233.921875 0)"/>
    </g>
    <!-- evidence for a TBI claim -->
    <g style="fill: #2d3748" transform="translate(494.892 388.872457) scale(0.096 -0.096)">
     <defs>
      <path id="DejaVuSans-49" d="M 2375 4863 
L 2375 4384 
L 1825 4384 
Q 1516 4384 1395 4259 
Q 1275 4134 1275 3809 
L 1275 3500 
L 2222 3500 
L 2222 3053 
L 1275 3053 
L 1275 0 
L 697 0 
L 697 3053 
L 147 3053 
L 147 3500 
L 697 3500 
L 697 3744 
Q 697 4328 969 4595 
Q 1241 4863 1831 4863 
L 2375 4863 
z
" transform="scale(0.015625)"/>
     </defs>
     <use xlink:href="#DejaVuSans-48"/>
     <use xlink:href="#DejaVuSans-59" transform="translate(61.53125 0)"/>
     <use xlink:href="#DejaVuSans-4c" transform="translate(120.71875 0)"/>
     <use xlink:href="#DejaVuSans-47" transform="translate(148.5 0)"/>
     <use xlink:href="#DejaVuSans-48" transform="translate(211.984375 0)"/>
     <use xlink:href="#DejaVuSans-51" transform="translate(273.515625 0)"/>
     <use xlink:href="#DejaVuSans-46" transform="translate(336.890625 0)"/>
     <use xlink:href="#DejaVuSans-48" transform="translate(391.875 0)"/>
     <use xlink:href="#DejaVuSans-3" transform="translate(453.40625 0)"/>
     <use xlink:href="#DejaVuSans-49" transform="translate(485.1875 0)"/>
     <use xlink:href="#DejaVuSans-52" transform="translate(520.390625 0)"/>
     <use xlink:href="#DejaVuSans-55" transform="translate(581.578125 0)"/>
     <use xlink:href="#DejaVuSans-3" transform="translate(622.6875 0)"/>
     <use xlink:href="#DejaVuSans-44" transform="translate(654.46875 0)"/>
     <use xlink:href="#DejaVuSans-3" transform="translate(715.75 0)"/>
     <use xlink:href="#DejaVuSans-37" transform="translate(747.53125 0)"/>
     <use xlink:href="#DejaVuSans-25" transform="translate(808.609375 0)"/>
     <use xlink:href="#DejaVuSans-2c" transform="translate(877.21875 0)"/>
     <use xlink:href="#DejaVuSans-3" transform="translate(906.71875 0)"/>
     <use xlink:href="#DejaVuSans-46" transform="translate(938.5 0)"/>
     <use xlink:href="#DejaVuSans-4f" transform="translate(993.484375 0)"/>
     <use xlink:href="#DejaVuSans-44" transform="translate(1021.265625 0)"/>
     <use xlink:href="#DejaVuSans-4c" transform="translate(1082.546875 0)"/>
     <use xlink:href="#DejaVuSans-50" transform="translate(1110.328125 0)"/>
    </g>
   </g>
   <g id="text_13">
    <!-- Verified raw EEG -->
    <g style="fill: #2d3748" transform="translate(45.702 49.30758) scale(0.11 -0.11)">
     <defs>
      <path id="DejaVuSans-Bold-39" d="M 31 4666 
L 1241 4666 
L 2478 1222 
L 3713 4666 
L 4922 4666 
L 3194 0 
L 1759 0 
L 31 4666 
z
" transform="scale(0.015625)"/>
      <path id="DejaVuSans-Bold-48" d="M 4031 1759 
L 4031 1441 
L 1416 1441 
Q 1456 1047 1700 850 
Q 1944 653 2381 653 
Q 2734 653 3104 758 
Q 3475 863 3866 1075 
L 3866 213 
Q 3469 63 3072 -14 
Q 2675 -91 2278 -91 
Q 1328 -91 801 392 
Q 275 875 275 1747 
Q 275 2603 792 3093 
Q 1309 3584 2216 3584 
Q 3041 3584 3536 3087 
Q 4031 2591 4031 1759 
z
M 2881 2131 
Q 2881 2450 2695 2645 
Q 2509 2841 2209 2841 
Q 1884 2841 1681 2658 
Q 1478 2475 1428 2131 
L 2881 2131 
z
" transform="scale(0.015625)"/>
      <path id="DejaVuSans-Bold-55" d="M 3138 2547 
Q 2991 2616 2845 2648 
Q 2700 2681 2553 2681 
Q 2122 2681 1889 2404 
Q 1656 2128 1656 1613 
L 1656 0 
L 538 0 
L 538 3500 
L 1656 3500 
L 1656 2925 
Q 1872 3269 2151 3426 
Q 2431 3584 2822 3584 
Q 2878 3584 2943 3579 
Q 3009 3575 3134 3559 
L 3138 2547 
z
" transform="scale(0.015625)"/>
      <path id="DejaVuSans-Bold-4c" d="M 538 3500 
L 1656 3500 
L 1656 0 
L 538 0 
L 538 3500 
z
M 538 4863 
L 1656 4863 
L 1656 3950 
L 538 3950 
L 538 4863 
z
" transform="scale(0.015625)"/>
      <path id="DejaVuSans-Bold-13ab" d="M 3078 4863 
L 4206 4863 
L 4206 3950 
L 3078 3950 
L 3078 4863 
z
M 2847 4863 
L 2847 4128 
L 2228 4128 
Q 1994 4128 1903 4042 
Q 1813 3956 1813 3744 
L 1813 3500 
L 4206 3500 
L 4206 0 
L 3078 0 
L 3078 2700 
L 1813 2700 
L 1813 0 
L 684 0 
L 684 2700 
L 134 2700 
L 134 3500 
L 684 3500 
L 684 3744 
Q 684 4316 1003 4589 
Q 1322 4863 1991 4863 
L 2847 4863 
z
" transform="scale(0.015625)"/>
      <path id="DejaVuSans-Bold-47" d="M 2919 2988 
L 2919 4863 
L 4044 4863 
L 4044 0 
L 2919 0 
L 2919 506 
Q 2688 197 2409 53 
Q 2131 -91 1766 -91 
Q 1119 -91 703 423 
Q 288 938 288 1747 
Q 288 2556 703 3070 
Q 1119 3584 1766 3584 
Q 2128 3584 2408 3439 
Q 2688 3294 2919 2988 
z
M 2181 722 
Q 2541 722 2730 984 
Q 2919 1247 2919 1747 
Q 2919 2247 2730 2509 
Q 2541 2772 2181 2772 
Q 1825 2772 1636 2509 
Q 1447 2247 1447 1747 
Q 1447 1247 1636 984 
Q 1825 722 2181 722 
z
" transform="scale(0.015625)"/>
      <path id="DejaVuSans-Bold-3" transform="scale(0.015625)"/>
      <path id="DejaVuSans-Bold-44" d="M 2106 1575 
Q 1756 1575 1579 1456 
Q 1403 1338 1403 1106 
Q 1403 894 1545 773 
Q 1688 653 1941 653 
Q 2256 653 2472 879 
Q 2688 1106 2688 1447 
L 2688 1575 
L 2106 1575 
z
M 3816 1997 
L 3816 0 
L 2688 0 
L 2688 519 
Q 2463 200 2181 54 
Q 1900 -91 1497 -91 
Q 953 -91 614 226 
Q 275 544 275 1050 
Q 275 1666 698 1953 
Q 1122 2241 2028 2241 
L 2688 2241 
L 2688 2328 
Q 2688 2594 2478 2717 
Q 2269 2841 1825 2841 
Q 1466 2841 1156 2769 
Q 847 2697 581 2553 
L 581 3406 
Q 941 3494 1303 3539 
Q 1666 3584 2028 3584 
Q 2975 3584 3395 3211 
Q 3816 2838 3816 1997 
z
" transform="scale(0.015625)"/>
      <path id="DejaVuSans-Bold-5a" d="M 225 3500 
L 1313 3500 
L 1900 1088 
L 2491 3500 
L 3425 3500 
L 4013 1113 
L 4603 3500 
L 5691 3500 
L 4769 0 
L 3547 0 
L 2956 2406 
L 2369 0 
L 1147 0 
L 225 3500 
z
" transform="scale(0.015625)"/>
      <path id="DejaVuSans-Bold-28" d="M 588 4666 
L 3834 4666 
L 3834 3756 
L 1791 3756 
L 1791 2888 
L 3713 2888 
L 3713 1978 
L 1791 1978 
L 1791 909 
L 3903 909 
L 3903 0 
L 588 0 
L 588 4666 
z
" transform="scale(0.015625)"/>
      <path id="DejaVuSans-Bold-2a" d="M 4781 347 
Q 4331 128 3847 18 
Q 3363 -91 2847 -91 
Q 1681 -91 1000 561 
Q 319 1213 319 2328 
Q 319 3456 1012 4103 
Q 1706 4750 2913 4750 
Q 3378 4750 3804 4662 
Q 4231 4575 4609 4403 
L 4609 3438 
Q 4219 3659 3833 3768 
Q 3447 3878 3059 3878 
Q 2341 3878 1952 3476 
Q 1563 3075 1563 2328 
Q 1563 1588 1938 1184 
Q 2313 781 3003 781 
Q 3191 781 3352 804 
Q 3513 828 3641 878 
L 3641 1784 
L 2906 1784 
L 2906 2591 
L 4781 2591 
L 4781 347 
z
" transform="scale(0.015625)"/>
     </defs>
     <use xlink:href="#DejaVuSans-Bold-39"/>
     <use xlink:href="#DejaVuSans-Bold-48" transform="translate(71.921875 0)"/>
     <use xlink:href="#DejaVuSans-Bold-55" transform="translate(139.75 0)"/>
     <use xlink:href="#DejaVuSans-Bold-4c" transform="translate(189.0625 0)"/>
     <use xlink:href="#DejaVuSans-Bold-13ab" transform="translate(223.34375 0)"/>
     <use xlink:href="#DejaVuSans-Bold-48" transform="translate(297.46875 0)"/>
     <use xlink:href="#DejaVuSans-Bold-47" transform="translate(365.296875 0)"/>
     <use xlink:href="#DejaVuSans-Bold-3" transform="translate(436.875 0)"/>
     <use xlink:href="#DejaVuSans-Bold-55" transform="translate(471.6875 0)"/>
     <use xlink:href="#DejaVuSans-Bold-44" transform="translate(521 0)"/>
     <use xlink:href="#DejaVuSans-Bold-5a" transform="translate(588.484375 0)"/>
     <use xlink:href="#DejaVuSans-Bold-3" transform="translate(680.875 0)"/>
     <use xlink:href="#DejaVuSans-Bold-28" transform="translate(715.6875 0)"/>
     <use xlink:href="#DejaVuSans-Bold-28" transform="translate(784 0)"/>
     <use xlink:href="#DejaVuSans-Bold-2a" transform="translate(852.3125 0)"/>
    </g>
   </g>
   <g id="text_14">
    <!-- Locked analysis role -->
    <g style="fill: #2d3748" transform="translate(276.714 49.30758) scale(0.11 -0.11)">
     <defs>
      <path id="DejaVuSans-Bold-2f" d="M 588 4666 
L 1791 4666 
L 1791 909 
L 3903 909 
L 3903 0 
L 588 0 
L 588 4666 
z
" transform="scale(0.015625)"/>
      <path id="DejaVuSans-Bold-52" d="M 2203 2784 
Q 1831 2784 1636 2517 
Q 1441 2250 1441 1747 
Q 1441 1244 1636 976 
Q 1831 709 2203 709 
Q 2569 709 2762 976 
Q 2956 1244 2956 1747 
Q 2956 2250 2762 2517 
Q 2569 2784 2203 2784 
z
M 2203 3584 
Q 3106 3584 3614 3096 
Q 4122 2609 4122 1747 
Q 4122 884 3614 396 
Q 3106 -91 2203 -91 
Q 1297 -91 786 396 
Q 275 884 275 1747 
Q 275 2609 786 3096 
Q 1297 3584 2203 3584 
z
" transform="scale(0.015625)"/>
      <path id="DejaVuSans-Bold-46" d="M 3366 3391 
L 3366 2478 
Q 3138 2634 2908 2709 
Q 2678 2784 2431 2784 
Q 1963 2784 1702 2511 
Q 1441 2238 1441 1747 
Q 1441 1256 1702 982 
Q 1963 709 2431 709 
Q 2694 709 2930 787 
Q 3166 866 3366 1019 
L 3366 103 
Q 3103 6 2833 -42 
Q 2563 -91 2291 -91 
Q 1344 -91 809 395 
Q 275 881 275 1747 
Q 275 2613 809 3098 
Q 1344 3584 2291 3584 
Q 2566 3584 2833 3536 
Q 3100 3488 3366 3391 
z
" transform="scale(0.015625)"/>
      <path id="DejaVuSans-Bold-4e" d="M 538 4863 
L 1656 4863 
L 1656 2216 
L 2944 3500 
L 4244 3500 
L 2534 1894 
L 4378 0 
L 3022 0 
L 1656 1459 
L 1656 0 
L 538 0 
L 538 4863 
z
" transform="scale(0.015625)"/>
      <path id="DejaVuSans-Bold-51" d="M 4056 2131 
L 4056 0 
L 2931 0 
L 2931 347 
L 2931 1631 
Q 2931 2084 2911 2256 
Q 2891 2428 2841 2509 
Q 2775 2619 2662 2680 
Q 2550 2741 2406 2741 
Q 2056 2741 1856 2470 
Q 1656 2200 1656 1722 
L 1656 0 
L 538 0 
L 538 3500 
L 1656 3500 
L 1656 2988 
Q 1909 3294 2193 3439 
Q 2478 3584 2822 3584 
Q 3428 3584 3742 3212 
Q 4056 2841 4056 2131 
z
" transform="scale(0.015625)"/>
      <path id="DejaVuSans-Bold-4f" d="M 538 4863 
L 1656 4863 
L 1656 0 
L 538 0 
L 538 4863 
z
" transform="scale(0.015625)"/>
      <path id="DejaVuSans-Bold-5c" d="M 78 3500 
L 1197 3500 
L 2138 1125 
L 2938 3500 
L 4056 3500 
L 2584 -331 
Q 2363 -916 2067 -1148 
Q 1772 -1381 1288 -1381 
L 641 -1381 
L 641 -647 
L 991 -647 
Q 1275 -647 1404 -556 
Q 1534 -466 1606 -231 
L 1638 -134 
L 78 3500 
z
" transform="scale(0.015625)"/>
      <path id="DejaVuSans-Bold-56" d="M 3272 3391 
L 3272 2541 
Q 2913 2691 2578 2766 
Q 2244 2841 1947 2841 
Q 1628 2841 1473 2761 
Q 1319 2681 1319 2516 
Q 1319 2381 1436 2309 
Q 1553 2238 1856 2203 
L 2053 2175 
Q 2913 2066 3209 1816 
Q 3506 1566 3506 1031 
Q 3506 472 3093 190 
Q 2681 -91 1863 -91 
Q 1516 -91 1145 -36 
Q 775 19 384 128 
L 384 978 
Q 719 816 1070 734 
Q 1422 653 1784 653 
Q 2113 653 2278 743 
Q 2444 834 2444 1013 
Q 2444 1163 2330 1236 
Q 2216 1309 1875 1350 
L 1678 1375 
Q 931 1469 631 1722 
Q 331 1975 331 2491 
Q 331 3047 712 3315 
Q 1094 3584 1881 3584 
Q 2191 3584 2531 3537 
Q 2872 3491 3272 3391 
z
" transform="scale(0.015625)"/>
     </defs>
     <use xlink:href="#DejaVuSans-Bold-2f"/>
     <use xlink:href="#DejaVuSans-Bold-52" transform="translate(63.71875 0)"/>
     <use xlink:href="#DejaVuSans-Bold-46" transform="translate(132.421875 0)"/>
     <use xlink:href="#DejaVuSans-Bold-4e" transform="translate(191.703125 0)"/>
     <use xlink:href="#DejaVuSans-Bold-48" transform="translate(255.515625 0)"/>
     <use xlink:href="#DejaVuSans-Bold-47" transform="translate(323.34375 0)"/>
     <use xlink:href="#DejaVuSans-Bold-3" transform="translate(394.921875 0)"/>
     <use xlink:href="#DejaVuSans-Bold-44" transform="translate(429.734375 0)"/>
     <use xlink:href="#DejaVuSans-Bold-51" transform="translate(497.21875 0)"/>
     <use xlink:href="#DejaVuSans-Bold-44" transform="translate(568.40625 0)"/>
     <use xlink:href="#DejaVuSans-Bold-4f" transform="translate(635.890625 0)"/>
     <use xlink:href="#DejaVuSans-Bold-5c" transform="translate(670.171875 0)"/>
     <use xlink:href="#DejaVuSans-Bold-56" transform="translate(735.359375 0)"/>
     <use xlink:href="#DejaVuSans-Bold-4c" transform="translate(794.875 0)"/>
     <use xlink:href="#DejaVuSans-Bold-56" transform="translate(829.15625 0)"/>
     <use xlink:href="#DejaVuSans-Bold-3" transform="translate(888.671875 0)"/>
     <use xlink:href="#DejaVuSans-Bold-55" transform="translate(923.484375 0)"/>
     <use xlink:href="#DejaVuSans-Bold-52" transform="translate(972.796875 0)"/>
     <use xlink:href="#DejaVuSans-Bold-4f" transform="translate(1041.5 0)"/>
     <use xlink:href="#DejaVuSans-Bold-48" transform="translate(1075.78125 0)"/>
    </g>
   </g>
   <g id="text_15">
    <!-- Manuscript guardrail -->
    <g style="fill: #2d3748" transform="translate(494.892 49.30758) scale(0.11 -0.11)">
     <defs>
      <path id="DejaVuSans-Bold-30" d="M 588 4666 
L 2119 4666 
L 3181 2169 
L 4250 4666 
L 5778 4666 
L 5778 0 
L 4641 0 
L 4641 3413 
L 3566 897 
L 2803 897 
L 1728 3413 
L 1728 0 
L 588 0 
L 588 4666 
z
" transform="scale(0.015625)"/>
      <path id="DejaVuSans-Bold-58" d="M 500 1363 
L 500 3500 
L 1625 3500 
L 1625 3150 
Q 1625 2866 1622 2436 
Q 1619 2006 1619 1863 
Q 1619 1441 1641 1255 
Q 1663 1069 1716 984 
Q 1784 875 1895 815 
Q 2006 756 2150 756 
Q 2500 756 2700 1025 
Q 2900 1294 2900 1772 
L 2900 3500 
L 4019 3500 
L 4019 0 
L 2900 0 
L 2900 506 
Q 2647 200 2364 54 
Q 2081 -91 1741 -91 
Q 1134 -91 817 281 
Q 500 653 500 1363 
z
" transform="scale(0.015625)"/>
      <path id="DejaVuSans-Bold-53" d="M 1656 506 
L 1656 -1331 
L 538 -1331 
L 538 3500 
L 1656 3500 
L 1656 2988 
Q 1888 3294 2169 3439 
Q 2450 3584 2816 3584 
Q 3463 3584 3878 3070 
Q 4294 2556 4294 1747 
Q 4294 938 3878 423 
Q 3463 -91 2816 -91 
Q 2450 -91 2169 54 
Q 1888 200 1656 506 
z
M 2400 2772 
Q 2041 2772 1848 2508 
Q 1656 2244 1656 1747 
Q 1656 1250 1848 986 
Q 2041 722 2400 722 
Q 2759 722 2948 984 
Q 3138 1247 3138 1747 
Q 3138 2247 2948 2509 
Q 2759 2772 2400 2772 
z
" transform="scale(0.015625)"/>
      <path id="DejaVuSans-Bold-57" d="M 1759 4494 
L 1759 3500 
L 2913 3500 
L 2913 2700 
L 1759 2700 
L 1759 1216 
Q 1759 972 1856 886 
Q 1953 800 2241 800 
L 2816 800 
L 2816 0 
L 1856 0 
Q 1194 0 917 276 
Q 641 553 641 1216 
L 641 2700 
L 84 2700 
L 84 3500 
L 641 3500 
L 641 4494 
L 1759 4494 
z
" transform="scale(0.015625)"/>
      <path id="DejaVuSans-Bold-4a" d="M 2919 594 
Q 2688 288 2409 144 
Q 2131 0 1766 0 
Q 1125 0 706 504 
Q 288 1009 288 1791 
Q 288 2575 706 3076 
Q 1125 3578 1766 3578 
Q 2131 3578 2409 3434 
Q 2688 3291 2919 2981 
L 2919 3500 
L 4044 3500 
L 4044 353 
Q 4044 -491 3511 -936 
Q 2978 -1381 1966 -1381 
Q 1638 -1381 1331 -1331 
Q 1025 -1281 716 -1178 
L 716 -306 
Q 1009 -475 1290 -558 
Q 1572 -641 1856 -641 
Q 2406 -641 2662 -400 
Q 2919 -159 2919 353 
L 2919 594 
z
M 2181 2772 
Q 1834 2772 1640 2515 
Q 1447 2259 1447 1791 
Q 1447 1309 1634 1061 
Q 1822 813 2181 813 
Q 2531 813 2725 1069 
Q 2919 1325 2919 1791 
Q 2919 2259 2725 2515 
Q 2531 2772 2181 2772 
z
" transform="scale(0.015625)"/>
     </defs>
     <use xlink:href="#DejaVuSans-Bold-30"/>
     <use xlink:href="#DejaVuSans-Bold-44" transform="translate(99.515625 0)"/>
     <use xlink:href="#DejaVuSans-Bold-51" transform="translate(167 0)"/>
     <use xlink:href="#DejaVuSans-Bold-58" transform="translate(238.1875 0)"/>
     <use xlink:href="#DejaVuSans-Bold-56" transform="translate(309.375 0)"/>
     <use xlink:href="#DejaVuSans-Bold-46" transform="translate(368.890625 0)"/>
     <use xlink:href="#DejaVuSans-Bold-55" transform="translate(428.171875 0)"/>
     <use xlink:href="#DejaVuSans-Bold-4c" transform="translate(477.484375 0)"/>
     <use xlink:href="#DejaVuSans-Bold-53" transform="translate(511.765625 0)"/>
     <use xlink:href="#DejaVuSans-Bold-57" transform="translate(583.34375 0)"/>
     <use xlink:href="#DejaVuSans-Bold-3" transform="translate(631.140625 0)"/>
     <use xlink:href="#DejaVuSans-Bold-4a" transform="translate(665.953125 0)"/>
     <use xlink:href="#DejaVuSans-Bold-58" transform="translate(737.53125 0)"/>
     <use xlink:href="#DejaVuSans-Bold-44" transform="translate(808.71875 0)"/>
     <use xlink:href="#DejaVuSans-Bold-55" transform="translate(876.203125 0)"/>
     <use xlink:href="#DejaVuSans-Bold-47" transform="translate(925.515625 0)"/>
     <use xlink:href="#DejaVuSans-Bold-55" transform="translate(997.09375 0)"/>
     <use xlink:href="#DejaVuSans-Bold-44" transform="translate(1046.40625 0)"/>
     <use xlink:href="#DejaVuSans-Bold-4c" transform="translate(1113.890625 0)"/>
     <use xlink:href="#DejaVuSans-Bold-4f" transform="translate(1148.171875 0)"/>
    </g>
   </g>
   <g id="text_16">
    <!-- Public EEG workflow and dataset roles -->
    <g transform="translate(7.2 19.3575) scale(0.16 -0.16)">
     <defs>
      <path id="DejaVuSans-Bold-33" d="M 588 4666 
L 2584 4666 
Q 3475 4666 3951 4270 
Q 4428 3875 4428 3144 
Q 4428 2409 3951 2014 
Q 3475 1619 2584 1619 
L 1791 1619 
L 1791 0 
L 588 0 
L 588 4666 
z
M 1791 3794 
L 1791 2491 
L 2456 2491 
Q 2806 2491 2997 2661 
Q 3188 2831 3188 3144 
Q 3188 3456 2997 3625 
Q 2806 3794 2456 3794 
L 1791 3794 
z
" transform="scale(0.015625)"/>
      <path id="DejaVuSans-Bold-45" d="M 2400 722 
Q 2759 722 2948 984 
Q 3138 1247 3138 1747 
Q 3138 2247 2948 2509 
Q 2759 2772 2400 2772 
Q 2041 2772 1848 2508 
Q 1656 2244 1656 1747 
Q 1656 1250 1848 986 
Q 2041 722 2400 722 
z
M 1656 2988 
Q 1888 3294 2169 3439 
Q 2450 3584 2816 3584 
Q 3463 3584 3878 3070 
Q 4294 2556 4294 1747 
Q 4294 938 3878 423 
Q 3463 -91 2816 -91 
Q 2450 -91 2169 54 
Q 1888 200 1656 506 
L 1656 0 
L 538 0 
L 538 4863 
L 1656 4863 
L 1656 2988 
z
" transform="scale(0.015625)"/>
      <path id="DejaVuSans-Bold-13ac" d="M 1984 4863 
L 4206 4863 
L 4206 0 
L 3078 0 
L 3078 4128 
L 2222 4128 
Q 1984 4128 1890 4042 
Q 1797 3956 1797 3744 
L 1797 3500 
L 2675 3500 
L 2675 2700 
L 1797 2700 
L 1797 0 
L 678 0 
L 678 2700 
L 122 2700 
L 122 3500 
L 678 3500 
L 678 3744 
Q 678 4316 997 4589 
Q 1316 4863 1984 4863 
z
" transform="scale(0.015625)"/>
     </defs>
     <use xlink:href="#DejaVuSans-Bold-33"/>
     <use xlink:href="#DejaVuSans-Bold-58" transform="translate(73.296875 0)"/>
     <use xlink:href="#DejaVuSans-Bold-45" transform="translate(144.484375 0)"/>
     <use xlink:href="#DejaVuSans-Bold-4f" transform="translate(216.0625 0)"/>
     <use xlink:href="#DejaVuSans-Bold-4c" transform="translate(250.34375 0)"/>
     <use xlink:href="#DejaVuSans-Bold-46" transform="translate(284.625 0)"/>
     <use xlink:href="#DejaVuSans-Bold-3" transform="translate(343.90625 0)"/>
     <use xlink:href="#DejaVuSans-Bold-28" transform="translate(378.71875 0)"/>
     <use xlink:href="#DejaVuSans-Bold-28" transform="translate(447.03125 0)"/>
     <use xlink:href="#DejaVuSans-Bold-2a" transform="translate(515.34375 0)"/>
     <use xlink:href="#DejaVuSans-Bold-3" transform="translate(597.421875 0)"/>
     <use xlink:href="#DejaVuSans-Bold-5a" transform="translate(632.234375 0)"/>
     <use xlink:href="#DejaVuSans-Bold-52" transform="translate(724.625 0)"/>
     <use xlink:href="#DejaVuSans-Bold-55" transform="translate(793.328125 0)"/>
     <use xlink:href="#DejaVuSans-Bold-4e" transform="translate(842.640625 0)"/>
     <use xlink:href="#DejaVuSans-Bold-13ac" transform="translate(909.140625 0)"/>
     <use xlink:href="#DejaVuSans-Bold-52" transform="translate(983.265625 0)"/>
     <use xlink:href="#DejaVuSans-Bold-5a" transform="translate(1051.96875 0)"/>
     <use xlink:href="#DejaVuSans-Bold-3" transform="translate(1144.359375 0)"/>
     <use xlink:href="#DejaVuSans-Bold-44" transform="translate(1179.171875 0)"/>
     <use xlink:href="#DejaVuSans-Bold-51" transform="translate(1246.65625 0)"/>
     <use xlink:href="#DejaVuSans-Bold-47" transform="translate(1317.84375 0)"/>
     <use xlink:href="#DejaVuSans-Bold-3" transform="translate(1389.421875 0)"/>
     <use xlink:href="#DejaVuSans-Bold-47" transform="translate(1424.234375 0)"/>
     <use xlink:href="#DejaVuSans-Bold-44" transform="translate(1495.8125 0)"/>
     <use xlink:href="#DejaVuSans-Bold-57" transform="translate(1563.296875 0)"/>
     <use xlink:href="#DejaVuSans-Bold-44" transform="translate(1611.09375 0)"/>
     <use xlink:href="#DejaVuSans-Bold-56" transform="translate(1678.578125 0)"/>
     <use xlink:href="#DejaVuSans-Bold-48" transform="translate(1738.09375 0)"/>
     <use xlink:href="#DejaVuSans-Bold-57" transform="translate(1805.921875 0)"/>
     <use xlink:href="#DejaVuSans-Bold-3" transform="translate(1853.71875 0)"/>
     <use xlink:href="#DejaVuSans-Bold-55" transform="translate(1888.53125 0)"/>
     <use xlink:href="#DejaVuSans-Bold-52" transform="translate(1937.84375 0)"/>
     <use xlink:href="#DejaVuSans-Bold-4f" transform="translate(2006.546875 0)"/>
     <use xlink:href="#DejaVuSans-Bold-48" transform="translate(2040.828125 0)"/>
     <use xlink:href="#DejaVuSans-Bold-56" transform="translate(2108.65625 0)"/>
    </g>
   </g>
  </g>
 </g>
</svg>
